<svg width="232" height="183" viewBox="0 0 232 183" fill="none" xmlns="http://www.w3.org/2000/svg">
<g id="Gambar">
<path id="Floor_00000143598672855313685430000010386919255487072412_" d="M52.0461 94.3082C17.0964 114.482 17.0964 147.2 52.0461 167.374C86.9958 187.547 143.654 187.547 178.604 167.374C213.553 147.2 213.553 114.482 178.604 94.3082C143.654 74.1347 86.9958 74.1347 52.0461 94.3082Z" fill="#EAEAEA"/>
<g id="Clouds_00000095328101331131615420000005093447168978946218_">
<path id="XMLID_00000101103169469053446060000008085802502844052910_" d="M31.0986 11.4676H35.4643C35.4403 11.3237 35.4163 11.1798 35.4163 11.0598V10.1003C35.4163 8.39721 36.9995 7.02993 38.9664 7.02993C39.758 7.02993 40.4776 7.24582 41.0773 7.62962C41.3892 5.3748 43.62 3.59973 46.3306 3.59973C49.257 3.59973 51.6318 5.66265 51.6318 8.18133V9.62057C51.6318 10.2682 51.4639 10.8919 51.176 11.4676H54.8221C55.9016 11.4676 56.7891 12.2352 56.7891 13.1707C56.7891 14.1062 55.9016 14.8738 54.8221 14.8738H31.0986C30.0191 14.8738 29.1316 14.1062 29.1316 13.1707C29.1316 12.2352 30.0191 11.4676 31.0986 11.4676Z" fill="#EAEAEA"/>
<path id="XMLID_00000181057627289123066200000008189804280017013120_" d="M19.1968 41.4039H16.0545C16.0784 41.308 16.0784 41.212 16.0784 41.0921V40.3964C16.0784 39.1731 14.9271 38.1896 13.5358 38.1896C12.9601 38.1896 12.4324 38.3575 12.0246 38.6214C11.7847 36.9902 10.2015 35.7189 8.25855 35.7189C6.14766 35.7189 4.44455 37.2061 4.44455 39.0052V40.0366C4.44455 40.5164 4.56449 40.9482 4.75639 41.3559H2.14176C1.35017 41.3559 0.726501 41.9077 0.726501 42.5793C0.726501 43.251 1.35017 43.8027 2.14176 43.8027H19.1968C19.9884 43.8027 20.6121 43.251 20.6121 42.5793C20.6121 41.9556 19.9644 41.4039 19.1968 41.4039Z" fill="#EAEAEA"/>
</g>
<g id="Clouds_00000130626232163855984250000016553702895681017485_">
<path id="XMLID_00000051380457435905822860000007744044070997459107_" d="M195.64 42.0036H200.006C199.982 41.8597 199.958 41.7157 199.958 41.5958V40.6363C199.958 38.9332 201.541 37.5659 203.508 37.5659C204.3 37.5659 205.019 37.7818 205.619 38.1656C205.931 35.9108 208.162 34.1357 210.872 34.1357C213.799 34.1357 216.174 36.1986 216.174 38.7173V40.1326C216.174 40.7802 216.006 41.4039 215.718 41.9796H219.364C220.443 41.9796 221.331 42.7472 221.331 43.6827C221.331 44.6182 220.443 45.3858 219.364 45.3858H195.64C194.561 45.3858 193.673 44.6182 193.673 43.6827C193.673 42.7472 194.537 42.0036 195.64 42.0036Z" fill="#EAEAEA"/>
<path id="XMLID_00000165217139515177993840000005839333922068792192_" d="M229.858 16.9626H226.716C226.74 16.8666 226.74 16.7707 226.74 16.6507V15.9551C226.74 14.7317 225.589 13.7483 224.197 13.7483C223.622 13.7483 223.094 13.9162 222.686 14.18C222.446 12.5489 220.863 11.2776 218.92 11.2776C216.809 11.2776 215.106 12.7648 215.106 14.5638V15.5953C215.106 16.075 215.226 16.5068 215.418 16.9146H212.803C212.012 16.9146 211.388 17.4663 211.388 18.138C211.388 18.8096 212.012 19.3613 212.803 19.3613H229.858C230.65 19.3613 231.274 18.8096 231.274 18.138C231.274 17.4903 230.626 16.9626 229.858 16.9626Z" fill="#EAEAEA"/>
<path id="XMLID_00000113350682001719385360000007353612267771101628_" d="M188.966 7.61762H186.4C186.424 7.4737 186.424 7.35376 186.424 7.20984V6.29831C186.424 4.66717 184.888 3.34786 183.017 3.34786C182.25 3.34786 181.554 3.56375 180.978 3.92356C180.667 1.7407 178.532 0.0375977 175.917 0.0375977C173.111 0.0375977 170.808 2.00457 170.808 4.45128V5.81856C170.808 6.44224 170.952 7.04192 171.24 7.59363H169.441C168.385 7.59363 167.546 8.33724 167.546 9.22478C167.546 10.1363 168.385 10.8559 169.441 10.8559H188.942C189.998 10.8559 190.837 10.1123 190.837 9.22478C190.861 8.33724 189.998 7.61762 188.966 7.61762Z" fill="#EAEAEA"/>
</g>
<g id="Plants_00000093139337078162037090000004091120427609318322_">
<path id="Vector" d="M31.7527 128.394C31.8727 127.939 31.8247 127.123 31.0571 126.475C30.2895 125.828 29.2581 125.588 29.1621 125.636C29.0662 125.708 29.1621 126.739 29.9537 127.603C30.7213 128.442 31.4649 128.394 31.7527 128.394Z" fill="#7F3F98"/>
<path id="Vector_2" d="M32.1845 130.817C32.0886 130.361 31.6568 129.642 30.6973 129.426C29.7378 129.21 28.6823 129.45 28.6344 129.546C28.5624 129.642 29.1381 130.529 30.2415 130.937C31.321 131.321 31.9207 130.937 32.1845 130.817Z" fill="#7F3F98"/>
<path id="Vector_3" d="M34.0556 131.201C34.4873 131.009 35.111 130.481 35.159 129.498C35.207 128.514 34.8711 127.579 34.7752 127.555C34.6553 127.507 33.7917 128.298 33.5278 129.306C33.264 130.385 33.8877 130.961 34.0556 131.201Z" fill="#7F3F98"/>
<path id="Vector_4" d="M35.135 139.572C35.3509 138.709 35.2789 137.773 35.207 136.91C35.111 136.094 34.9671 135.255 34.7512 134.463C34.2954 132.808 33.5998 131.177 32.7123 129.69C32.1606 128.754 31.5129 127.771 30.6733 127.051C30.6494 127.027 30.6014 127.075 30.6254 127.099C31.4889 128.154 31.8008 128.754 32.3045 129.618C32.7363 130.361 33.168 131.153 33.5039 132.04C34.1275 133.624 34.4634 134.943 34.6792 136.502C34.8232 137.509 34.7992 138.517 34.8232 139.548C34.7992 139.74 35.063 139.788 35.135 139.572Z" fill="#37474F"/>
<path id="Vector_5" d="M33.8636 131.968C34.0795 131.561 34.2235 131.153 34.3434 130.697C34.4633 130.289 34.5353 129.834 34.4633 129.426C34.4633 129.378 34.4154 129.45 34.3914 129.474C34.3194 129.858 34.2235 130.217 34.1275 130.601C34.0076 130.985 33.8157 131.369 33.5998 131.705C33.5518 131.8 33.5518 131.944 33.6238 132.016C33.6957 132.088 33.8157 132.064 33.8636 131.968Z" fill="#37474F"/>
<path id="Vector_6" d="M33.7677 131.848C33.3599 131.369 32.9282 131.081 32.2805 130.697C32.0166 130.553 31.8008 130.433 31.5129 130.337C31.2251 130.217 30.6973 130.097 30.5294 130.097C30.5054 130.097 30.4335 130.121 30.4575 130.121C30.7213 130.193 31.1051 130.361 31.393 130.481C31.7288 130.625 31.9447 130.745 32.1846 130.913C32.7842 131.297 33.168 131.609 33.5998 132.04C33.6958 132.112 33.8397 131.92 33.7677 131.848Z" fill="#37474F"/>
<path id="Vector_7" d="M33.5518 134.247C33.5518 133.767 33.288 133 32.3764 132.568C31.4649 132.16 30.4095 132.16 30.3375 132.256C30.2655 132.352 30.6253 133.336 31.6088 133.935C32.5923 134.559 33.288 134.295 33.5518 134.247Z" fill="#7F3F98"/>
<path id="Vector_8" d="M34.8951 135.543C34.6072 134.991 34.2235 134.607 33.6717 134.103C33.4319 133.887 33.24 133.743 32.9761 133.576C32.7122 133.408 32.2325 133.168 32.0646 133.144C32.0406 133.144 31.9686 133.144 31.9926 133.168C32.2325 133.288 32.5923 133.528 32.8322 133.696C33.144 133.911 33.3119 134.055 33.5278 134.271C34.0316 134.775 34.3434 135.159 34.6792 135.662C34.7512 135.806 34.9431 135.638 34.8951 135.543Z" fill="#37474F"/>
</g>
<g id="Plants_00000109732382857485680540000012654371575770842033_">
<path id="Vector_9" d="M38.1095 123.837C37.8936 123.381 37.7736 122.493 38.4693 121.654C39.1649 120.838 40.2204 120.358 40.3403 120.406C40.4602 120.454 40.5562 121.606 39.8605 122.661C39.2129 123.693 38.4213 123.765 38.1095 123.837Z" fill="#7F3F98"/>
<path id="Vector_10" d="M38.1094 126.499C38.1334 125.996 38.4453 125.156 39.4287 124.724C40.4122 124.292 41.5876 124.364 41.6596 124.46C41.7555 124.556 41.2998 125.612 40.2203 126.259C39.1409 126.883 38.3973 126.571 38.1094 126.499Z" fill="#7F3F98"/>
<path id="Vector_11" d="M36.1904 127.243C35.6867 127.123 34.9191 126.691 34.6792 125.636C34.4393 124.58 34.6073 123.549 34.7032 123.477C34.8231 123.405 35.9026 124.077 36.3583 125.108C36.8621 126.259 36.3104 126.979 36.1904 127.243Z" fill="#7F3F98"/>
<path id="Vector_12" d="M36.6702 136.406C36.2624 135.519 36.1665 134.511 36.0945 133.552C36.0226 132.64 36.0466 131.753 36.1185 130.841C36.2864 128.97 36.6942 127.123 37.3659 125.348C37.7737 124.22 38.2774 123.069 39.045 122.134C39.069 122.11 39.117 122.134 39.117 122.158C38.3973 123.453 38.1814 124.149 37.8216 125.18C37.5098 126.068 37.198 126.979 37.0061 128.01C36.6462 129.81 36.5503 131.297 36.6223 133C36.6702 134.103 36.8861 135.183 37.054 136.286C37.054 136.526 36.7662 136.622 36.6702 136.406Z" fill="#37474F"/>
<path id="Vector_13" d="M36.5503 128.058C36.2384 127.675 35.9985 127.243 35.8066 126.811C35.6148 126.403 35.4468 125.924 35.4229 125.468C35.4229 125.396 35.4948 125.468 35.4948 125.516C35.6387 125.924 35.8067 126.283 35.9986 126.667C36.1904 127.051 36.4783 127.411 36.7661 127.747C36.8381 127.819 36.8861 127.986 36.8141 128.082C36.7422 128.154 36.6222 128.13 36.5503 128.058Z" fill="#37474F"/>
<path id="Vector_14" d="M36.6222 127.891C36.9581 127.291 37.3898 126.907 37.9895 126.379C38.2534 126.163 38.4693 126.02 38.7571 125.828C39.045 125.66 39.5727 125.42 39.7646 125.396C39.7886 125.396 39.8605 125.42 39.8365 125.42C39.5727 125.564 39.1889 125.804 38.901 125.972C38.5652 126.187 38.3733 126.355 38.1334 126.571C37.5577 127.099 37.2219 127.507 36.8381 128.034C36.7662 128.178 36.5743 127.987 36.6222 127.891Z" fill="#37474F"/>
<path id="Vector_15" d="M37.2939 130.409C37.2219 129.905 37.3419 129.018 38.2054 128.394C39.0929 127.771 40.2204 127.579 40.3403 127.675C40.4362 127.747 40.2443 128.874 39.3088 129.738C38.3973 130.553 37.6057 130.409 37.2939 130.409Z" fill="#7F3F98"/>
<path id="Vector_16" d="M36.1425 132.064C36.3344 131.417 36.6702 130.937 37.1739 130.313C37.3898 130.049 37.5577 129.858 37.7976 129.618C38.0375 129.378 38.4932 129.042 38.7091 128.97C38.7331 128.97 38.8051 128.97 38.7811 128.97C38.5412 129.162 38.2054 129.474 37.9895 129.714C37.7017 130.001 37.5577 130.193 37.3658 130.481C36.9101 131.105 36.6702 131.585 36.4063 132.184C36.3344 132.328 36.1185 132.184 36.1425 132.064Z" fill="#37474F"/>
</g>
<g id="Plants_00000098929424307535720360000006071002857172654244_">
<path id="Vector_17" d="M199.401 128.394C199.281 127.939 199.329 127.123 200.097 126.475C200.864 125.828 201.896 125.588 201.992 125.636C202.088 125.708 201.992 126.739 201.2 127.603C200.408 128.442 199.689 128.394 199.401 128.394Z" fill="#6B3B8E"/>
<path id="Vector_18" d="M198.945 130.817C199.041 130.361 199.473 129.642 200.432 129.426C201.392 129.21 202.447 129.45 202.495 129.546C202.567 129.642 201.992 130.529 200.888 130.937C199.833 131.321 199.209 130.937 198.945 130.817Z" fill="#6B3B8E"/>
<path id="Vector_19" d="M197.074 131.201C196.642 131.009 196.019 130.481 195.971 129.498C195.923 128.514 196.259 127.579 196.355 127.555C196.474 127.507 197.338 128.298 197.602 129.306C197.866 130.385 197.242 130.961 197.074 131.201Z" fill="#6B3B8E"/>
<path id="Vector_20" d="M196.019 139.572C195.803 138.709 195.875 137.773 195.947 136.91C196.043 136.094 196.187 135.255 196.402 134.463C196.858 132.808 197.554 131.177 198.441 129.69C198.993 128.754 199.641 127.771 200.48 127.051C200.504 127.027 200.552 127.075 200.528 127.099C199.665 128.154 199.353 128.754 198.849 129.618C198.417 130.361 197.986 131.153 197.65 132.04C197.026 133.624 196.69 134.943 196.474 136.502C196.331 137.509 196.355 138.517 196.331 139.548C196.331 139.74 196.067 139.788 196.019 139.572Z" fill="#37474F"/>
<path id="Vector_21" d="M197.29 131.968C197.074 131.561 196.93 131.153 196.81 130.697C196.69 130.289 196.618 129.834 196.69 129.426C196.69 129.378 196.738 129.45 196.762 129.474C196.834 129.858 196.93 130.217 197.026 130.601C197.146 130.985 197.338 131.369 197.554 131.705C197.602 131.8 197.602 131.944 197.53 132.016C197.434 132.088 197.314 132.064 197.29 131.968Z" fill="#37474F"/>
<path id="Vector_22" d="M197.386 131.848C197.794 131.369 198.226 131.081 198.873 130.697C199.137 130.553 199.353 130.433 199.641 130.337C199.929 130.217 200.456 130.097 200.624 130.097C200.648 130.097 200.72 130.121 200.696 130.121C200.432 130.193 200.049 130.361 199.761 130.481C199.425 130.625 199.209 130.745 198.969 130.913C198.37 131.297 197.986 131.609 197.554 132.04C197.458 132.112 197.314 131.92 197.386 131.848Z" fill="#37474F"/>
<path id="Vector_23" d="M197.578 134.247C197.578 133.767 197.842 133 198.753 132.568C199.665 132.16 200.72 132.16 200.792 132.256C200.864 132.352 200.504 133.336 199.521 133.935C198.537 134.559 197.866 134.295 197.578 134.247Z" fill="#6B3B8E"/>
<path id="Vector_24" d="M196.259 135.543C196.546 134.991 196.93 134.607 197.482 134.103C197.722 133.887 197.914 133.743 198.178 133.576C198.441 133.408 198.921 133.168 199.089 133.144C199.113 133.144 199.185 133.144 199.161 133.168C198.921 133.288 198.561 133.528 198.321 133.696C198.01 133.911 197.842 134.055 197.626 134.271C197.122 134.775 196.81 135.159 196.474 135.662C196.378 135.806 196.211 135.638 196.259 135.543Z" fill="#37474F"/>
</g>
<g id="Plants_00000160172722574768069460000018325856153133317272_">
<path id="Vector_25" d="M193.788 123.837C194.004 123.381 194.124 122.493 193.428 121.654C192.732 120.838 191.677 120.358 191.557 120.406C191.437 120.454 191.341 121.606 192.037 122.661C192.708 123.693 193.5 123.765 193.788 123.837Z" fill="#6B3B8E"/>
<path id="Vector_26" d="M193.812 126.499C193.788 125.996 193.476 125.156 192.492 124.724C191.509 124.292 190.334 124.364 190.262 124.46C190.166 124.556 190.621 125.612 191.701 126.259C192.78 126.883 193.5 126.571 193.812 126.499Z" fill="#6B3B8E"/>
<path id="Vector_27" d="M195.731 127.243C196.235 127.123 197.002 126.691 197.242 125.636C197.482 124.58 197.314 123.549 197.218 123.477C197.098 123.405 196.019 124.077 195.563 125.108C195.035 126.259 195.611 126.979 195.731 127.243Z" fill="#6B3B8E"/>
<path id="Vector_28" d="M195.251 136.406C195.659 135.519 195.755 134.511 195.827 133.552C195.899 132.64 195.875 131.753 195.803 130.841C195.635 128.97 195.227 127.123 194.555 125.348C194.148 124.22 193.644 123.069 192.876 122.134C192.852 122.11 192.804 122.134 192.804 122.158C193.524 123.453 193.74 124.149 194.1 125.18C194.411 126.068 194.723 126.979 194.915 128.01C195.275 129.81 195.371 131.297 195.299 133C195.251 134.103 195.035 135.183 194.867 136.286C194.867 136.526 195.155 136.622 195.251 136.406Z" fill="#37474F"/>
<path id="Vector_29" d="M195.371 128.058C195.683 127.675 195.923 127.243 196.115 126.811C196.307 126.403 196.474 125.924 196.498 125.468C196.498 125.396 196.426 125.468 196.426 125.516C196.283 125.924 196.115 126.283 195.923 126.667C195.731 127.051 195.443 127.411 195.155 127.747C195.083 127.819 195.035 127.986 195.107 128.082C195.179 128.154 195.299 128.13 195.371 128.058Z" fill="#37474F"/>
<path id="Vector_30" d="M195.275 127.891C194.939 127.291 194.507 126.907 193.908 126.379C193.644 126.163 193.428 126.02 193.14 125.828C192.852 125.66 192.324 125.42 192.133 125.396C192.109 125.396 192.037 125.42 192.061 125.42C192.324 125.564 192.708 125.804 192.996 125.972C193.332 126.187 193.524 126.355 193.764 126.571C194.339 127.099 194.675 127.507 195.059 128.034C195.155 128.178 195.347 127.987 195.275 127.891Z" fill="#37474F"/>
<path id="Vector_31" d="M194.603 130.409C194.675 129.905 194.555 129.018 193.692 128.394C192.804 127.771 191.677 127.579 191.557 127.675C191.461 127.747 191.653 128.874 192.588 129.738C193.524 130.553 194.291 130.409 194.603 130.409Z" fill="#6B3B8E"/>
<path id="Vector_32" d="M195.779 132.064C195.587 131.417 195.251 130.937 194.747 130.313C194.531 130.049 194.363 129.858 194.124 129.618C193.884 129.378 193.428 129.042 193.212 128.97C193.188 128.97 193.116 128.97 193.14 128.97C193.38 129.162 193.716 129.474 193.932 129.714C194.22 130.001 194.363 130.193 194.555 130.481C195.011 131.105 195.251 131.585 195.515 132.184C195.587 132.328 195.803 132.184 195.779 132.064Z" fill="#37474F"/>
</g>
<path id="Shadow_00000157996283174683409270000016405505137525331593_" d="M112.063 173.107C123.549 173.107 132.86 167.726 132.86 161.089C132.86 154.452 123.549 149.071 112.063 149.071C100.577 149.071 91.2656 154.452 91.2656 161.089C91.2656 167.726 100.577 173.107 112.063 173.107Z" fill="#BFC0C1"/>
<path id="Shadow_00000114759955152919159700000001575149256441201055_" d="M177.069 153.773C188.554 153.773 197.866 148.392 197.866 141.755C197.866 135.118 188.554 129.738 177.069 129.738C165.583 129.738 156.271 135.118 156.271 141.755C156.271 148.392 165.583 153.773 177.069 153.773Z" fill="#BFC0C1"/>
<path id="Shadow_00000178887427386398805790000003544599476138811327_" d="M53.7972 153.773C65.2831 153.773 74.5943 148.392 74.5943 141.755C74.5943 135.118 65.2831 129.738 53.7972 129.738C42.3113 129.738 33.0001 135.118 33.0001 141.755C33.0001 148.392 42.3113 153.773 53.7972 153.773Z" fill="#BFC0C1"/>
<g id="Character_7_">
<g id="Bottom_00000118372097195696232800000016065906636923793806_">
<g id="Group">
<path id="Vector_33" d="M185.68 146.697C185.824 148.016 186.04 148.904 186.568 149.671C187.095 150.415 188.007 150.631 188.918 150.367C189.83 150.103 190.813 149.407 191.221 148.304C191.557 147.368 191.557 146.361 191.293 145.161L185.68 146.697Z" fill="#263238"/>
<path id="XMLID_376_" d="M189.446 137.941C189.662 138.805 189.758 139.405 190.046 140.628C190.502 142.499 190.981 143.29 191.245 144.826C191.557 146.601 191.365 147.464 190.693 148.496C189.998 149.551 187.839 150.751 186.664 149.263C185.704 148.04 185.608 146.649 185.608 144.874C185.632 143.027 185.44 141.755 185.296 140.388V140.364C185.248 139.884 185.176 138.949 185.104 138.469C184.96 137.438 185.656 137.318 185.944 137.174C186.328 136.958 186.735 136.814 187.191 136.718C187.623 136.646 188.079 136.694 188.535 136.79C189.014 136.862 189.23 137.102 189.446 137.941Z" fill="#1B5480"/>
</g>
<g id="Group_2">
<path id="Vector_34" d="M159.989 141.18C159.918 141.18 159.798 142.067 160.277 142.427C160.805 142.835 162.364 143.506 164.355 143.195C166.37 142.883 167.426 142.259 168.217 141.563C169.009 140.892 170.112 139.932 171 139.716C171.839 139.5 172.943 139.045 173.207 138.781C173.47 138.517 173.398 137.39 173.398 137.39L159.989 141.18Z" fill="#263238"/>
<path id="XMLID_00000160905275751605527570000008848594522981303477_" d="M172.439 133.791C172.535 133.791 172.631 133.815 172.703 133.863C172.919 133.983 172.967 134.271 172.991 134.535C173.015 134.751 173.015 134.991 173.087 135.207C173.35 135.878 173.518 137.102 173.35 137.821C173.207 138.397 171.695 138.901 170.832 139.261C169.944 139.62 168.913 140.34 168.025 141.084C167.114 141.875 165.123 142.691 163.827 142.739C161.837 142.835 160.517 142.355 160.085 141.659C159.558 140.82 159.942 140.316 162.22 139.213C162.652 138.997 164.163 138.085 164.667 137.749C165.219 137.39 165.722 137.006 166.202 136.574C166.442 136.358 166.682 136.118 166.874 135.878C167.186 135.519 167.594 135.231 167.977 134.919C168.241 134.703 168.529 134.463 168.841 134.295C169.345 134.007 169.896 133.887 170.472 133.839C171.048 133.791 171.599 133.911 172.175 133.863C172.271 133.815 172.367 133.791 172.439 133.791Z" fill="#1B5480"/>
</g>
<g id="Group_3">
<path id="Vector_35" d="M189.206 137.486C188.75 133.648 189.062 129.402 188.487 123.405C188.391 121.87 188.271 120.215 188.103 118.751C187.551 113.834 186.687 112.179 186.568 111.219C186.568 111.219 186.52 101.528 185.752 90.758C185.392 85.6967 183.809 84.2094 182.466 81.5708L167.378 82.1705C166.034 88.887 166.346 104.047 166.658 110.907C166.826 114.41 167.737 126.931 167.785 132.616C167.809 134.295 167.474 134.895 166.874 135.543C165.627 136.934 164.019 137.941 162.508 139.021C162.1 139.932 164.211 140.46 165.986 139.5C167.498 138.685 169.225 137.677 169.728 137.27C171.024 136.262 172.415 135.591 172.679 134.151C172.775 133.576 175.509 120.215 175.557 117.312C175.605 114.817 175.126 110.596 175.126 110.596L176.373 99.9692C176.373 99.9692 178.028 108.077 179.012 112.347C179.995 116.616 181.098 121.702 182.226 125.948C183.353 130.841 184.84 135.567 185.176 138.013C185.272 138.589 186.208 144.346 186.544 145.665C186.879 146.985 189.878 146.889 189.974 144.61C190.046 143.075 189.302 138.205 189.206 137.486Z" fill="#B16669"/>
</g>
<g id="Group_4">
<g id="Group_5">
<path id="Vector_36" d="M182.897 81.6668C184.744 84.6172 186.112 87.04 186.639 96.0113C187.167 104.983 187.119 110.428 187.215 111.507C187.287 112.587 187.863 113.378 188.654 118.679C189.446 123.981 189.062 130.457 189.062 130.457C189.062 130.457 188.558 131.441 186.448 131.705C184.505 131.944 183.521 131.297 183.521 131.297C183.521 131.297 180.883 121.462 180.019 117.816C179.251 114.602 176.517 102.176 176.517 102.176L175.581 110.788C175.581 110.788 176.373 113.93 175.749 118.631C175.126 123.309 174.07 127.962 174.07 127.962C174.07 127.962 173.087 128.298 171.048 128.346C169.369 128.394 167.522 127.699 167.522 127.699C167.522 127.699 166.514 114.146 166.298 108.845C166.082 103.543 165.65 88.815 167.33 82.4104L182.897 81.6668Z" fill="#7BA5C6"/>
</g>
<path id="Vector_37" d="M185.32 111.555C185.32 111.555 184.217 110.524 182.154 110.835C180.091 111.171 179.299 112.371 179.299 112.371C181.458 111.315 185.32 111.555 185.32 111.555ZM180.499 112.707C181.722 112.898 182.945 112.946 185.584 112.323C184.289 112.083 180.499 112.707 180.499 112.707Z" fill="#B16669"/>
<g id="Group_6">
<path id="Vector_38" d="M166.322 109.636C166.322 109.828 166.346 110.02 166.346 110.212C166.874 110.164 169.225 109.924 171.599 110.188C170.832 109.804 168.097 109.372 166.322 109.636Z" fill="#B16669"/>
<path id="Vector_39" d="M166.394 110.979C166.394 111.147 166.418 111.339 166.418 111.507C166.826 111.459 169.297 111.219 170.352 110.907C168.577 110.836 166.802 110.931 166.394 110.979Z" fill="#B16669"/>
</g>
<g id="Group_7">
<path id="Vector_40" d="M186.687 113.354C186.04 110.907 186.04 106.158 185.872 102.056C185.824 100.809 185.776 99.5374 185.704 98.1701C185.44 92.8209 184.768 86.8481 181.794 83.106L181.578 83.274C183.569 85.7926 184.505 89.3428 184.984 93.0368C182.178 92.797 181.458 90.1583 180.499 86.5602C180.355 86.0565 180.235 85.5528 180.067 85.025L179.803 85.097C179.947 85.6247 180.091 86.1285 180.235 86.6322C181.218 90.2303 181.986 93.1088 185.032 93.3247C185.224 94.9558 185.344 96.587 185.44 98.1941C185.512 99.5614 185.56 100.833 185.608 102.08C185.776 106.206 185.776 110.955 186.424 113.426C186.496 113.714 186.568 114.002 186.664 114.29C187.503 117.456 188.511 122.757 188.319 131.153C188.415 131.081 188.511 131.033 188.606 130.961C188.774 122.637 187.791 117.384 186.951 114.218C186.831 113.906 186.759 113.618 186.687 113.354Z" fill="#37474F"/>
<path id="Vector_41" d="M176.493 102.176L174.334 92.0534C174.334 92.0534 170.64 91.9574 168.529 89.9665C168.985 91.7175 171.959 93.0848 173.302 93.3247L173.71 95.0998C173.686 96.0593 173.662 97.0667 173.614 98.0982C173.446 103.807 173.326 109.708 173.614 111.051C174.19 113.642 174.046 116.113 173.71 119.495C173.398 122.541 172.895 126.307 172.559 128.25C172.655 128.25 172.751 128.226 172.847 128.226C173.182 126.307 173.614 122.949 174.046 119.519C174.478 116.065 174.598 113.714 173.902 111.003C173.59 109.708 173.734 103.567 173.902 98.1222C173.926 97.4745 173.95 96.8269 173.95 96.1792L175.389 102.44L175.557 110.764L176.493 102.176Z" fill="#37474F"/>
</g>
</g>
</g>
<g id="Top_1_">
<g id="Group_8">
<g id="Group_9">
<path id="Vector_42" d="M148.092 67.0585C147.924 66.3868 147.804 65.6912 147.756 64.9955C147.732 64.6357 147.732 64.2519 147.732 63.8921C147.756 63.4124 147.852 63.6283 148.212 63.4604C148.308 63.4124 148.356 63.2924 148.356 63.1965C148.356 63.1005 148.332 62.9806 148.356 62.8847C148.38 62.7167 148.5 62.5968 148.643 62.5248C148.715 62.5009 148.811 62.4769 148.883 62.4289C149.027 62.309 148.979 62.0691 149.051 61.9012C149.147 61.6853 149.435 61.6133 149.651 61.7093C149.867 61.8052 150.011 62.0211 150.059 62.237C150.083 62.285 150.083 62.3329 150.107 62.3569C150.155 62.4289 150.275 62.4289 150.347 62.4289C150.61 62.4529 150.85 62.6688 150.97 62.9086C151.306 63.5083 151.258 64.2519 151.402 64.8996C151.498 65.3554 151.69 65.7631 151.978 66.123C152.026 66.1709 152.074 66.2429 152.146 66.2189C152.218 66.1949 152.242 66.123 152.266 66.051C152.362 65.3314 152.002 64.5878 152.242 63.9161C152.338 63.6762 152.481 63.4843 152.649 63.2924C152.673 63.2445 152.721 63.2205 152.769 63.1965C152.889 63.1485 153.009 63.2445 153.057 63.3404C153.129 63.5323 153.129 63.7962 153.177 63.9881C153.297 64.5398 153.417 65.0435 153.633 65.5712C153.801 66.027 153.921 66.4828 153.993 66.9625C154.065 67.3463 153.945 67.898 154.113 68.2578C154.161 68.3538 154.209 68.4258 154.281 68.4977C154.832 69.0974 157.783 71.5681 158.67 72.2397C159.318 72.7195 159.942 73.1992 160.589 73.679C160.589 73.679 162.988 70.6806 164.355 69.1694C167.498 65.6672 167.977 64.9955 170.712 65.2354L168.313 73.8469C168.313 73.8469 165.723 76.3176 162.988 78.7163C161.381 80.1316 160.205 80.3475 157.855 77.9248C156.487 76.5095 153.561 73.2232 152.889 72.5276C152.29 71.8799 151.522 71.4482 150.85 70.8725C149.891 70.0329 148.787 69.1694 148.356 67.922C148.26 67.6342 148.164 67.3463 148.092 67.0585Z" fill="#B16669"/>
</g>
<path id="Vector_43" d="M170.832 65.1155C169.057 65.1635 167.833 65.0675 166.178 66.9145C164.955 68.3058 164.475 68.8815 164.475 68.8815C164.475 68.8815 164.139 70.6806 165.387 72.5995C166.298 74.0148 167.474 74.7824 167.474 74.7824L168.745 73.631L170.832 65.1155Z" fill="#263238"/>
</g>
<g id="Group_10">
<path id="Vector_44" d="M185.296 86.2724C184.217 82.9381 183.113 81.355 183.305 79.7958C183.593 77.397 184.553 74.3986 184.625 72.7435C184.864 66.8666 183.737 66.2909 182.682 65.8351C182.682 65.8351 180.811 65.4273 179.779 65.1874C179.155 65.0435 177.932 64.8756 177.932 64.8756C176.973 64.8516 175.054 64.8756 174.262 64.9476C173.878 64.9955 173.183 64.9476 173.183 64.9476L170.784 65.1155C170.784 65.1155 168.985 66.6267 167.186 69.0494C165.363 71.5201 164.643 74.4706 167.306 76.6774C167.306 76.6774 167.426 78.9802 167.402 80.0356C167.306 81.5229 166.802 84.1855 166.562 87.2799C170.616 91.0699 180.715 90.1823 185.296 86.2724Z" fill="#2F70B0"/>
</g>
<g id="_x34__00000115481170762635119970000004691509338863442602_">
<path id="Vector_45" d="M175.773 72.5995L171.336 68.7855L174.718 51.1548L168.193 45.5177L163.108 47.2928L160.733 59.6463L155.816 55.3766L173.59 26.6876L166.586 20.6428L161.501 22.4179L142.479 52.9059L141.183 59.7423L157.975 74.2307L156.008 84.4253L162.556 90.0624L167.641 88.2873L168.577 83.3699L168.913 83.6577L173.998 81.8827L175.773 72.5995Z" fill="#AB6CAD"/>
<path id="Vector_46" d="M175.773 72.5995L171.336 68.7855L174.718 51.1548L168.193 45.5177L163.108 47.2928L160.733 59.6463L155.816 55.3766L173.59 26.6876L166.586 20.6428L161.501 22.4179L142.479 52.9059L141.183 59.7423L157.975 74.2307L156.008 84.4253L162.556 90.0624L167.641 88.2873L168.577 83.3699L168.913 83.6577L173.998 81.8827L175.773 72.5995Z" fill="#9B1C20"/>
<g id="_x34__00000142136102927938002320000003860845869607581085_">
<g id="Group_11">
<path id="Vector_47" d="M166.25 70.5606L169.632 52.9299L163.108 47.2929L159.726 64.9236L150.73 57.1517L168.505 28.4627L161.501 22.4179L142.479 52.9059L141.183 59.7423L157.975 74.2307L156.008 84.4254L162.556 90.0624L164.499 79.8438L168.913 83.6578L170.688 74.3747L166.25 70.5606Z" fill="#CF3A34"/>
</g>
</g>
<path id="Vector_48" d="M161.501 22.4179L168.505 28.4627L173.59 26.6876L166.586 20.6428L161.501 22.4179Z" fill="#AB6CAD"/>
<path id="Vector_49" d="M161.501 22.4179L168.505 28.4627L173.59 26.6876L166.586 20.6428L161.501 22.4179Z" fill="#F69799"/>
<path id="Vector_50" d="M163.108 47.2928L168.193 45.5178L174.718 51.1548L169.632 52.9299L163.108 47.2928Z" fill="#AB6CAD"/>
<path id="Vector_51" d="M163.108 47.2928L168.193 45.5178L174.718 51.1548L169.632 52.9299L163.108 47.2928Z" fill="#F69799"/>
<path id="Vector_52" d="M166.25 70.5606L171.336 68.7856L175.773 72.5996L170.688 74.3746L166.25 70.5606Z" fill="#AB6CAD"/>
<path id="Vector_53" d="M166.25 70.5606L171.336 68.7856L175.773 72.5996L170.688 74.3746L166.25 70.5606Z" fill="#F69799"/>
<path id="Vector_54" d="M150.73 57.1517L155.816 55.3766L160.733 59.6463L159.726 64.9236L150.73 57.1517Z" fill="#AB6CAD"/>
<path id="Vector_55" d="M150.73 57.1517L155.816 55.3766L160.733 59.6463L159.726 64.9236L150.73 57.1517Z" fill="#F69799"/>
</g>
<g id="Head_00000106866678638241098920000015996962722962898346_">
<path id="Vector_56" d="M182.298 58.1111C182.706 58.1111 183.089 57.9432 183.401 57.6554C183.857 57.2236 184.049 56.528 184.601 56.2401C184.984 56.0482 185.464 56.0962 185.896 55.9763C186.544 55.8083 187.071 55.1607 187.095 54.489C187.119 53.7934 186.687 53.0978 186.855 52.4021C186.951 51.9704 187.263 51.6105 187.431 51.2028C187.767 50.3632 187.431 49.3077 186.64 48.828C186.28 48.6121 185.872 48.5162 185.512 48.3243C184.768 47.9165 184.888 47.005 184.241 46.4532C183.689 45.9735 182.897 45.7816 182.226 45.9975C181.746 46.1414 181.266 46.4772 180.787 46.3813C180.499 46.3333 180.283 46.1414 180.019 45.9975C179.107 45.5177 177.86 45.8296 177.284 46.6691C177.117 46.933 176.973 47.2448 176.709 47.4127C176.181 47.7246 176.109 48.0844 175.869 48.6361C175.629 49.1878 175.581 49.8834 175.941 50.3632C176.181 50.723 176.613 50.9389 176.805 51.3467C177.14 52.0903 176.517 52.8819 176.421 53.6974C176.277 55.3286 177.908 55.2087 178.652 56.1442C178.892 56.456 179.036 56.8158 179.227 57.1276C179.635 57.7993 180.475 57.5114 181.17 57.7753C181.41 57.8713 181.65 57.9912 181.914 58.0632C182.034 58.0871 182.178 58.1111 182.298 58.1111Z" fill="#263238"/>
<path id="Vector_57" d="M180.451 48.6601C180.859 48.9239 181.242 49.2598 181.482 49.6915C181.578 49.8595 181.65 50.0514 181.578 50.2433C181.482 50.5791 181.051 50.651 180.715 50.675C179.419 50.723 177.956 50.2193 177.476 48.876C176.877 47.1489 179.851 48.2763 180.451 48.6601Z" fill="#2F70B0"/>
<path id="Vector_58" d="M178.556 61.9492C178.1 62.0451 177.668 61.7333 177.356 61.4214C176.613 60.6778 176.109 59.7183 175.365 58.9987C174.454 58.1112 173.255 57.5834 172.079 57.0797C171.456 56.8159 170.928 56.6479 170.256 56.624C169.704 56.6 169.225 56.0962 168.985 55.6165C168.697 55.0888 168.649 54.4651 168.817 53.9134C168.985 53.3856 169.345 52.9059 169.369 52.3302C169.393 51.9224 169.249 51.5386 169.249 51.1548C169.225 50.4112 169.704 49.6916 170.4 49.4037C171.072 49.1399 171.911 49.2838 172.487 48.876C172.943 48.5642 173.159 47.9645 173.638 47.6527C173.878 47.4847 174.166 47.4368 174.454 47.3888C175.389 47.2689 176.373 47.5087 177.165 48.0604C177.476 48.2763 177.764 48.5402 178.124 48.6841C178.58 48.876 179.108 48.852 179.587 48.972C180.499 49.1878 181.41 49.8355 181.698 50.747C181.89 51.3707 181.818 51.9944 181.986 52.6181C182.178 53.2657 182.61 53.7934 182.922 54.3931C183.281 55.1127 183.425 55.9283 183.353 56.7199C183.329 57.0317 183.257 57.3436 183.089 57.6074C182.658 58.2551 181.674 58.423 181.386 59.1426C181.29 59.3585 181.29 59.5984 181.242 59.8383C181.05 60.9897 179.971 61.9012 178.82 61.9492C178.58 61.9252 178.82 61.9012 178.556 61.9492Z" fill="#263238"/>
<path id="Vector_59" d="M179.155 64.0121C179.179 63.4364 179.395 60.5099 179.395 60.5099C179.419 60.7258 180.451 61.3734 181.434 60.294C182.466 59.1906 182.37 57.5594 181.698 56.9118C180.643 55.8803 179.083 56.7199 178.844 58.1351C178.004 58.5429 177.74 57.5355 178.316 56.3841C178.268 55.4486 177.308 55.2806 177.428 53.2417C177.356 52.2103 174.238 51.2268 171.503 51.7305C170.928 52.9059 170.232 53.8654 170.328 55.3526C170.376 55.8803 169.92 56.504 169.848 57.1996C169.584 60.294 170.4 61.8052 171.36 62.3569C172.007 62.7407 172.583 62.8847 173.734 62.9326L173.638 63.9161C173.59 64.3959 173.638 64.8516 173.159 64.9955C172.943 65.3074 172.415 67.5382 174.07 69.0974C177.26 68.4018 179.779 65.7392 180.019 65.2834C179.227 64.9716 179.131 64.5878 179.155 64.0121Z" fill="#B16669"/>
<g id="Group_12">
<path id="XMLID_00000148626417359884504510000011802323854671353241_" d="M170.76 54.7529L172.055 54.5131C172.007 54.1533 171.671 53.9134 171.312 53.9614C170.952 54.0333 170.712 54.3931 170.76 54.7529Z" fill="#263238"/>
<path id="XMLID_00000000941255642628277000000013663279898101182104_" d="M175.557 54.4171L176.541 55.3286C176.301 55.6165 175.893 55.6404 175.605 55.3766C175.341 55.1367 175.317 54.7049 175.557 54.4171Z" fill="#263238"/>
<path id="XMLID_366_" d="M172.007 55.8803C172.007 56.1922 171.767 56.432 171.456 56.432C171.144 56.432 170.904 56.1922 170.904 55.9043C170.904 55.5925 171.144 55.3526 171.456 55.3526C171.767 55.3526 172.007 55.5925 172.007 55.8803Z" fill="#263238"/>
<path id="XMLID_00000138554972863277632540000015731455062766424496_" d="M175.845 56.504C175.845 56.8158 175.605 57.0557 175.294 57.0557C174.982 57.0557 174.742 56.8158 174.742 56.528C174.742 56.2161 174.982 55.9763 175.294 55.9763C175.605 55.9763 175.845 56.2161 175.845 56.504Z" fill="#263238"/>
</g>
<path id="Vector_60" d="M171.384 58.1591L173.015 58.8788L173.662 55.8084C172.967 55.7604 172.175 56.8638 171.384 58.1591Z" fill="#9A4B4E"/>
<g id="Group_13">
<path id="Vector_61" d="M173.518 60.4379C173.81 60.4379 174.046 60.2016 174.046 59.9102C174.046 59.6187 173.81 59.3825 173.518 59.3825C173.227 59.3825 172.991 59.6187 172.991 59.9102C172.991 60.2016 173.227 60.4379 173.518 60.4379Z" fill="#9A4B4E"/>
<path id="Vector_62" d="M174.022 59.7663C174.022 59.8142 174.046 59.8622 174.046 59.9102C174.046 60.198 173.806 60.4379 173.518 60.4379C173.374 60.4379 173.255 60.3899 173.159 60.294C173.35 60.0301 173.662 59.8142 174.022 59.7663Z" fill="#F3908F"/>
</g>
<g id="XMLID_00000165195460191427042030000015607208432057980596_">
<path id="XMLID_00000083086711166777241920000002685705033390613165_" d="M173.758 62.9086C175.317 62.9086 176.397 62.6448 177.116 62.213C177.716 61.8292 178.172 61.3255 178.388 60.9177C178.388 60.9177 178.052 62.0691 177.284 62.6448C175.845 63.7482 173.686 63.6523 173.686 63.6523L173.758 62.9086Z" fill="#9A4B4E"/>
</g>
</g>
<path id="Vector_63" d="M174.478 79.1961C174.478 79.1961 174.358 79.8198 174.358 79.9157C174.334 81.0911 175.03 81.8827 176.109 82.3385C177.62 82.9861 180.139 83.7777 183.401 84.6413C187.095 85.6247 188.99 85.0011 189.662 84.3294C190.334 83.6578 190.622 82.0746 190.214 80.3475C188.942 75.0703 188.655 74.1827 188.031 72.1198C186.4 66.7226 185.464 66.6267 182.85 65.8831C181.386 67.5142 181.194 70.7046 182.082 73.5591C183.257 77.421 184.121 79.5319 184.121 79.5319C184.121 79.5319 181.098 79.2441 177.692 78.5245C176.301 78.2366 176.685 76.1977 176.685 76.1977L174.478 79.1961Z" fill="#B16669"/>
<g id="Group_14">
<path id="Vector_64" d="M176.565 75.526C176.781 74.4466 176.733 74.2307 176.325 73.4391C175.917 72.6715 175.749 72.2877 175.557 71.9999C175.365 71.712 174.55 70.8245 174.334 70.7045C173.902 70.4887 173.686 71.3282 174.046 71.8799C174.382 72.4556 174.886 73.1513 174.886 73.1513L176.565 75.526Z" fill="#9A4B4E"/>
<path id="Vector_65" d="M175.701 80.3955C175.605 80.1076 176.613 79.436 176.517 78.9083C176.421 78.4045 176.325 78.3805 176.613 77.9248C176.901 77.493 176.877 77.0852 176.709 76.8453C176.541 76.6055 177.069 76.4136 176.925 75.8619C176.805 75.4301 176.181 74.3746 175.893 73.9668C175.605 73.5591 174.406 72.9114 173.854 72.6715C173.303 72.4077 173.183 72.8874 173.207 73.2232C173.231 73.583 173.638 74.0388 173.638 74.0388C173.638 74.0388 172.991 73.8229 172.871 74.0388C172.703 74.3027 172.751 74.8784 173.398 75.3581C172.871 75.1182 172.631 75.3101 172.679 75.7419C172.727 76.0537 172.991 76.4136 173.398 76.7734C173.926 77.2051 174.574 77.7089 174.646 78.2606L174.478 79.2441L175.701 80.3955Z" fill="#B16669"/>
<path id="Vector_66" d="M175.701 80.3954C175.653 80.2755 175.725 80.1556 175.773 80.0596C175.821 79.9637 175.893 79.8677 175.965 79.7718C176.085 79.5799 176.253 79.412 176.325 79.2201C176.373 79.1241 176.397 79.0282 176.397 78.9562L176.349 78.6204C176.325 78.5004 176.325 78.3565 176.397 78.2366C176.469 78.1166 176.541 78.0447 176.613 77.9487C176.565 78.0687 176.517 78.1646 176.517 78.2846C176.493 78.3805 176.517 78.4764 176.541 78.5964C176.565 78.6923 176.613 78.8123 176.637 78.9322C176.661 79.0761 176.613 79.2201 176.565 79.34C176.445 79.5799 176.277 79.7478 176.133 79.9157L175.893 80.1556C175.797 80.1796 175.701 80.2755 175.701 80.3954Z" fill="#9A4B4E"/>
<path id="Vector_67" d="M173.638 74.0388C173.95 74.1588 174.262 74.2787 174.55 74.4226C174.838 74.5665 175.15 74.7105 175.437 74.9024C175.701 75.1662 175.869 75.4301 176.061 75.7179C176.229 76.0058 176.397 76.2936 176.541 76.5815C176.325 76.3416 176.109 76.0777 175.893 75.8379L175.581 75.4541C175.485 75.3341 175.366 75.1902 175.27 75.1183C175.03 74.9503 174.718 74.7824 174.454 74.6145C174.166 74.4226 173.902 74.2547 173.638 74.0388Z" fill="#9A4B4E"/>
<path id="Vector_68" d="M176.013 77.8768C175.821 77.6369 175.653 77.3491 175.485 77.1092C175.318 76.8693 175.102 76.6774 174.862 76.4855C174.382 76.1257 173.854 75.7659 173.399 75.3341C173.974 75.574 174.502 75.9098 175.006 76.2696C175.246 76.4615 175.509 76.7014 175.653 76.9893C175.797 77.2771 175.893 77.565 176.013 77.8768Z" fill="#9A4B4E"/>
</g>
<path id="Vector_69" d="M184.121 79.5799C185.56 79.5799 186.855 79.7718 187.911 80.8752C187.071 79.1241 185.392 79.1241 183.929 79.0522L184.121 79.5799Z" fill="#9A4B4E"/>
<path id="Vector_70" d="M182.682 65.8351C185.056 66.3868 185.488 66.6027 186.16 67.3943C186.831 68.2099 187.191 68.9295 188.031 71.5681C187.383 73.2232 182.154 74.3506 182.154 74.3506C182.154 74.3506 181.626 72.8394 181.434 71.4002C181.218 69.9849 181.194 67.3943 182.682 65.8351Z" fill="#2F70B0"/>
</g>
</g>
<g id="Character_00000003787978881839633510000000403884673345709210_">
<g id="Bottom_1_">
<g id="Group_15">
<path id="Vector_71" d="M98.8456 152.478C99.0855 149.023 99.2054 147.416 99.5413 141.252C99.5652 139.668 99.6372 137.989 99.7332 136.478C100.093 131.417 100.741 130.217 101.172 128.49C101.604 126.763 101.556 122.062 102.204 111.195C102.564 105.174 103.451 101.816 104.219 98.9138H119.787C121.394 105.726 121.85 120.478 121.802 127.507C121.778 131.081 121.73 149.599 121.826 151.062C121.922 152.622 122.713 153.605 123.313 154.277C124.608 155.644 125.52 156.22 127.127 157.419C126.887 158.043 123.529 158.019 122.569 157.539C121.034 156.795 119.067 155.572 118.539 155.164C117.22 154.181 116.908 153.605 116.884 152.118C116.884 151.926 116.884 151.662 116.908 151.638C116.884 150.775 114.365 137.797 113.838 134.871C113.406 132.592 113.886 128.202 113.886 128.202L112.231 117.36C112.231 117.36 110.767 125.996 109.784 130.385C109.064 133.6 107.241 138.685 106.066 143.842C104.675 149.071 104.579 149.527 103.763 153.293C103.355 155.188 102.348 161.545 101.892 162.84C100.405 167.062 97.0706 164.951 96.8787 162.624C96.7347 161.041 98.7976 153.221 98.8456 152.478Z" fill="#F7A7A8"/>
<path id="XMLID_00000166649918058424130350000009590670636176308374_" d="M112.231 117.36L113.43 109.54C113.43 109.54 118.084 108.988 119.787 107.357C119.787 107.357 117.652 110.38 114.485 110.859L113.166 117.336L113.862 128.082L112.231 117.36Z" fill="#C76251"/>
</g>
<g id="Group_16">
<path id="Vector_72" d="M130.701 159.146C130.797 159.146 130.941 160.106 130.461 160.513C129.909 160.993 128.326 161.785 126.191 161.521C124.056 161.281 122.905 160.633 122.041 159.914C121.178 159.218 119.978 158.211 119.019 158.019C118.131 157.827 116.668 157.347 116.38 157.083C116.093 156.819 116.117 155.596 116.117 155.596L130.701 159.146Z" fill="#263238"/>
<path id="XMLID_00000048499220928022692860000004220086080580915848_" d="M116.884 151.302C116.884 151.302 116.596 151.446 116.548 151.734C116.476 152.07 116.476 152.502 116.356 153.053C116.165 153.821 116.045 155.404 116.189 156.028C116.308 156.651 118.251 157.179 119.187 157.515C120.146 157.875 121.25 158.594 122.209 159.386C123.217 160.202 125.328 160.993 126.719 161.017C128.83 161.017 130.197 160.441 130.605 159.674C131.109 158.738 130.701 158.187 128.254 157.083C127.798 156.867 126.167 155.932 125.616 155.596C125.04 155.236 124.464 154.828 123.96 154.373C123.697 154.133 123.457 153.893 123.217 153.653C123.001 153.437 122.713 153.149 122.593 152.885C122.569 152.813 122.545 152.742 122.521 152.67C122.449 152.478 122.401 152.31 122.353 152.094C122.305 151.902 122.281 151.59 122.089 151.47C121.874 151.326 121.466 151.35 121.226 151.374C120.914 151.398 120.602 151.446 120.29 151.518C119.931 151.614 119.043 151.542 118.827 151.878C118.659 152.142 118.635 152.454 118.635 152.766C118.635 152.909 118.635 153.053 118.635 153.197C118.635 153.269 118.659 153.365 118.587 153.341C118.515 153.317 118.419 153.101 118.371 153.029C118.299 152.861 118.251 152.694 118.179 152.55C118.084 152.382 118.012 152.166 117.868 152.046C117.46 151.71 117.076 151.782 116.956 151.662C116.932 151.686 116.884 151.422 116.884 151.302Z" fill="#1B5480"/>
<path id="Vector_73" d="M128.638 157.251C125.592 157.491 124.632 159.386 124.512 160.561C125.28 160.825 126.047 160.993 126.695 160.993C128.806 160.993 130.245 160.417 130.677 159.65C131.157 158.762 130.821 158.067 128.638 157.251Z" fill="#FAFBFB"/>
<g id="Group_17">
<g id="Group_18">
<path id="Vector_74" d="M124.056 157.347C124.032 157.347 123.984 157.347 123.96 157.323C123.888 157.275 123.888 157.179 123.936 157.107C124.368 156.579 125.568 155.884 126.695 155.98C126.767 155.98 126.839 156.052 126.839 156.148C126.839 156.22 126.767 156.292 126.671 156.292C125.64 156.196 124.512 156.891 124.176 157.299C124.152 157.323 124.104 157.347 124.056 157.347Z" fill="#F1F0F0"/>
</g>
<g id="Group_19">
<path id="Vector_75" d="M122.737 156.579C122.713 156.579 122.665 156.579 122.641 156.555C122.569 156.508 122.569 156.412 122.617 156.34C123.049 155.812 124.248 155.116 125.376 155.212C125.448 155.212 125.52 155.284 125.52 155.38C125.52 155.452 125.448 155.524 125.352 155.524C124.32 155.428 123.193 156.124 122.857 156.532C122.809 156.579 122.785 156.579 122.737 156.579Z" fill="#F1F0F0"/>
</g>
<g id="Group_20">
<path id="Vector_76" d="M121.514 155.716C121.49 155.716 121.442 155.716 121.418 155.692C121.346 155.644 121.346 155.548 121.394 155.476C121.826 154.948 123.049 154.253 124.152 154.349C124.224 154.349 124.296 154.421 124.296 154.517C124.296 154.589 124.224 154.661 124.128 154.661C123.097 154.565 121.969 155.26 121.634 155.668C121.586 155.716 121.538 155.716 121.514 155.716Z" fill="#F1F0F0"/>
</g>
<g id="Group_21">
<path id="Vector_77" d="M120.29 154.852C120.266 154.852 120.218 154.852 120.194 154.828C120.122 154.78 120.122 154.684 120.17 154.613C120.746 153.869 122.065 153.365 123.169 153.485C123.241 153.485 123.313 153.557 123.313 153.653C123.313 153.725 123.241 153.797 123.145 153.797C122.137 153.701 120.914 154.157 120.41 154.828C120.386 154.828 120.338 154.852 120.29 154.852Z" fill="#F1F0F0"/>
</g>
</g>
</g>
<g id="Group_22">
<path id="Vector_78" d="M102.324 163.296C102.084 164.711 101.748 165.647 101.148 166.438C100.549 167.23 99.5652 167.374 98.6057 167.014C97.6702 166.654 96.4948 165.863 96.3509 164.591C96.207 163.32 96.135 162.456 96.5188 161.161L102.324 163.296Z" fill="#263238"/>
<path id="XMLID_00000031899156773481202990000003310105036055846569_" d="M98.8456 152.478C98.4378 152.454 98.3419 154.373 97.8861 156.268C97.4063 158.307 97.0226 159.098 96.6148 160.753C96.159 162.648 96.3749 163.56 96.9266 164.807C97.4783 166.055 99.7331 167.47 101.1 165.911C102.204 164.663 102.42 163.152 102.54 161.209C102.66 159.194 103.019 157.875 103.331 156.388C103.667 154.852 104.051 153.461 103.715 153.245C103.667 153.461 103.427 154.541 103.307 154.78C103.259 154.876 103.067 155.14 103.043 154.732C103.043 154.613 103.115 154.349 103.115 154.229C103.115 153.893 102.923 153.821 102.804 153.725C102.54 153.533 101.916 153.245 101.148 153.173C100.357 153.077 99.6852 152.981 99.2294 153.149C98.9415 153.245 98.9415 153.509 98.8696 153.749C98.7976 154.037 98.7736 154.205 98.7257 154.157C98.6297 154.013 98.8696 152.694 98.8456 152.478Z" fill="#1B5480"/>
<path id="Vector_79" d="M96.3988 161.857C96.2069 163.056 96.3988 163.896 96.8306 164.879C97.3823 166.126 99.853 167.566 101.196 166.007C101.868 165.239 102.132 164.279 102.324 163.272C101.772 161.929 97.6222 160.897 96.3988 161.857Z" fill="#FAFBFB"/>
<g id="Group_23">
<g id="Group_24">
<path id="Vector_80" d="M101.7 161.089C101.676 161.089 101.676 161.089 101.652 161.065C101.628 161.065 99.8771 160.082 98.03 160.298C97.9581 160.298 97.8861 160.25 97.8621 160.178C97.8621 160.106 97.9101 160.01 97.9821 160.01C99.925 159.77 101.724 160.777 101.796 160.825C101.868 160.873 101.892 160.969 101.844 161.041C101.82 161.089 101.748 161.113 101.7 161.089Z" fill="#F1F0F0"/>
</g>
<g id="Group_25">
<path id="Vector_81" d="M98.2699 158.882C98.2219 158.882 98.174 158.834 98.15 158.762C98.126 158.69 98.174 158.594 98.2699 158.594C100.141 158.187 102.012 159.314 102.084 159.362C102.156 159.41 102.18 159.506 102.132 159.578C102.084 159.65 101.988 159.674 101.916 159.626C101.892 159.626 100.069 158.522 98.3179 158.906C98.2939 158.882 98.2939 158.882 98.2699 158.882Z" fill="#F1F0F0"/>
</g>
<g id="Group_26">
<path id="Vector_82" d="M98.4858 157.539C98.4378 157.539 98.3898 157.491 98.3659 157.419C98.3419 157.347 98.3898 157.251 98.4858 157.251C100.525 156.771 102.324 157.971 102.372 158.019C102.444 158.067 102.444 158.163 102.396 158.235C102.348 158.307 102.252 158.307 102.18 158.259C102.156 158.259 100.453 157.083 98.5338 157.539C98.5098 157.539 98.4858 157.539 98.4858 157.539Z" fill="#F1F0F0"/>
</g>
<g id="Group_27">
<path id="Vector_83" d="M98.7257 156.196C98.6777 156.196 98.6297 156.148 98.6057 156.076C98.5817 156.004 98.6297 155.908 98.7017 155.884C100.621 155.404 102.54 156.651 102.612 156.699C102.684 156.747 102.684 156.843 102.636 156.915C102.588 156.987 102.492 156.987 102.42 156.939C102.396 156.939 100.549 155.716 98.7497 156.172C98.7736 156.22 98.7497 156.22 98.7257 156.196Z" fill="#EBEBEB"/>
</g>
</g>
</g>
<path id="Vector_84" d="M102.803 98.9138C102.396 103.064 102.204 104.215 101.58 113.666C100.956 122.853 101.316 125.636 101.22 126.763C101.004 129.306 99.877 130.169 99.5652 136.166C99.2534 141.659 99.0854 148.424 99.0854 148.424C99.0854 148.424 99.8291 149.431 101.916 149.623C103.835 149.791 104.818 149.071 104.818 149.071C104.818 149.071 108.393 136.286 109.4 133.072C110.743 128.706 112.255 119.591 112.255 119.591L113.526 128.37C113.526 128.37 113.118 132.568 113.934 136.55C114.941 141.467 115.973 146.817 115.973 146.817C115.973 146.817 117.244 147.344 118.875 147.176C121.13 146.961 121.897 146.433 121.897 146.433C121.897 146.433 122.521 131.561 122.521 126.139C122.521 120.718 122.305 107.381 121.85 98.9138H102.803Z" fill="#7BA5C6"/>
<path id="Vector_85" d="M112.231 119.567L113.79 110.068C113.79 110.068 116.932 109.228 118.947 107.117C118.803 108.701 115.997 110.716 114.701 111.027L112.95 119.447L113.478 128.346L112.231 119.567Z" fill="#37474F"/>
<path id="Vector_86" d="M108.584 100.377C108.081 101.145 107.721 102.008 107.409 102.872C107.097 103.735 106.833 104.623 106.618 105.51C106.402 106.398 106.234 107.309 106.114 108.221C105.994 109.132 105.922 110.044 105.922 110.979C106.138 110.092 106.354 109.204 106.546 108.317C106.761 107.429 106.953 106.542 107.169 105.654C107.385 104.767 107.601 103.903 107.817 103.016C108.057 102.128 108.297 101.241 108.584 100.377Z" fill="#37474F"/>
<path id="Vector_87" d="M107.361 100.713C106.905 101.145 106.498 101.6 106.114 102.104C105.73 102.608 105.418 103.136 105.106 103.663C104.818 104.215 104.555 104.791 104.339 105.366C104.123 105.966 103.979 106.566 103.907 107.189L104.746 105.534C105.034 105.007 105.322 104.455 105.61 103.927C105.898 103.399 106.21 102.872 106.498 102.32C106.809 101.816 107.097 101.265 107.361 100.713Z" fill="#37474F"/>
<path id="Vector_88" d="M109.376 111.699C108.968 114.554 108.632 117.408 108.273 120.239C107.913 123.093 107.625 127.675 107.097 130.505C106.57 133.312 103.259 144.346 102.804 147.176C103.451 144.37 107.097 133.432 107.649 130.601C108.177 127.771 108.417 123.141 108.704 120.287C108.992 117.432 109.184 114.578 109.376 111.699Z" fill="#37474F"/>
<path id="Vector_89" d="M119.595 111.699L120.074 119.183C120.146 120.43 120.218 121.678 120.29 122.925C120.338 124.172 120.41 125.42 120.41 126.667C120.386 127.915 120.314 139.86 120.482 142.379C120.77 139.596 120.914 129.21 120.986 126.691C120.986 124.149 120.77 121.678 120.53 119.183C120.29 116.664 119.979 114.17 119.595 111.699Z" fill="#37474F"/>
<path id="Vector_90" d="M115.709 145.569L116.141 148.184C116.141 148.184 117.172 148.856 119.379 148.616C121.562 148.4 121.874 147.68 121.874 147.68V145.233C121.874 145.233 121.346 145.737 119.355 145.977C117.34 146.193 115.709 145.569 115.709 145.569Z" fill="#37474F"/>
<path id="Vector_91" d="M99.1334 146.577L98.9415 149.215C98.9415 149.215 99.8051 150.103 101.988 150.391C104.171 150.679 104.651 150.055 104.651 150.055L105.226 147.68C105.226 147.68 104.603 148.064 102.612 147.8C100.573 147.584 99.1334 146.577 99.1334 146.577Z" fill="#37474F"/>
</g>
<g id="Top_00000145738249028615950930000015318433927929197967_">
<g id="Chest_00000080205299465651626360000000184293024554021767_">
<g id="Group_28">
<path id="Vector_92" d="M118.131 78.2606C120.146 78.5004 122.281 79.7478 125.975 81.8107C128.95 83.4658 129.933 83.9936 129.933 83.9936C129.933 83.9936 133.243 77.6609 134.467 75.6219C136.242 72.6475 137.633 76.0777 137.177 77.3011C136.314 79.6039 136.026 82.2665 134.611 87.2319C133.867 89.7985 133.363 90.9019 130.125 89.8465C127.463 88.9829 120.794 86.5122 120.794 86.5122L118.131 78.2606Z" fill="#F7A7A8"/>
<path id="Vector_93" d="M138.497 71.4482C138.689 70.2008 137.729 68.8335 137.729 68.8335V70.7045L138.497 71.4482Z" fill="#F3908F"/>
<path id="Vector_94" d="M117.988 77.9967C120.074 78.2606 121.058 78.6204 122.425 79.4599C123.793 80.2995 128.83 83.154 128.83 83.154C128.83 83.154 129.214 84.3054 128.998 86.2964C128.782 88.2873 127.415 89.1029 127.415 89.1029L120.122 86.6802L117.988 77.9967Z" fill="#2F70B0"/>
</g>
<g id="Chest_00000008866867892015273220000005545055571292439424_">
<path id="XMLID_00000147916160736064733060000017874815721761172356_" d="M102.804 79.7958C102.804 79.7958 101.22 83.0341 102.204 88.959C102.66 91.6696 102.995 93.7805 102.804 97.3786C102.636 100.425 102.012 105.99 102.012 105.99C105.154 108.653 118.923 108.773 122.137 104.767C122.137 104.767 121.969 98.1941 121.969 93.0129C121.969 89.1509 121.754 85.8886 121.322 84.0655C120.338 79.9397 118.851 78.5964 118.012 77.9727C115.757 77.8048 114.557 77.7808 111.247 78.0927C108.68 78.3326 105.658 79.0042 103.835 79.436C103.067 79.6279 102.804 79.7958 102.804 79.7958Z" fill="#2F70B0"/>
</g>
<g id="Group_29">
<path id="Vector_95" d="M102.803 79.7957C100.093 80.7313 99.5892 81.9786 97.6462 85.3129C95.7032 88.6471 93.7362 93.1567 92.9926 95.3156C92.249 97.4745 93.4004 99.7773 94.4079 100.185C95.1995 100.521 95.8711 100.833 96.8546 100.089C97.4303 99.6573 98.4138 98.6259 99.0135 97.7383C100.956 94.7159 103.955 89.4867 103.955 89.4867C103.955 89.4867 106.018 82.3864 102.803 79.7957Z" fill="#F7A7A8"/>
<path id="Vector_96" d="M97.5263 97.5465C98.03 94.9798 97.5982 94.0683 97.3823 92.4611C97.1664 90.878 96.9026 88.4073 96.7587 86.944C96.039 88.3113 95.3194 89.7985 94.6957 91.1418L97.5263 97.5465Z" fill="#F3908F"/>
<path id="Vector_97" d="M94.9116 90.2783C95.0795 91.0938 97.0465 95.1717 100.309 95.8913L104.363 89.2948C104.363 89.2948 105.97 85.097 103.811 79.4359C101.364 79.8917 100.333 80.4194 98.8456 82.7942C97.3343 85.1689 94.9116 90.2783 94.9116 90.2783Z" fill="#2F70B0"/>
</g>
<g id="Group_30">
<path id="Vector_98" d="M92.8727 88.3593C92.8487 88.839 92.9447 89.1988 92.8487 90.806C92.7768 92.4132 92.7048 92.653 92.5849 94.3561C92.441 96.2272 92.1051 97.4505 93.3285 99.3695C94.5518 101.336 95.9671 100.881 97.1665 99.8013C97.7662 97.9303 97.5983 94.9318 96.8307 92.773C96.087 90.6141 95.9431 88.7911 95.9431 88.7911L92.8727 88.3593Z" fill="#F7A7A8"/>
<path id="Vector_99" d="M91.2416 83.8496C91.1216 83.7057 90.7138 83.6337 90.5459 83.7777C90.378 83.9216 90.6179 84.4013 90.9537 85.025C91.1696 85.4328 91.6493 86.944 92.1291 87.5917C92.6088 88.2153 92.8727 88.7191 92.9447 89.5107C93.4004 87.4957 92.5849 85.2409 91.2416 83.8496Z" fill="#F3908F"/>
</g>
</g>
<g id="Head_00000132087956204074084810000001101935304469740982_">
<g id="Group_31">
<g id="XMLID_00000039852909677369183900000006600745760427216547_">
<g id="XMLID_00000052817955979319288590000002897220311606121117_">
<path id="Vector_100" d="M107.865 75.6939C106.546 73.7989 105.322 72.5995 104.363 70.4647C103.955 69.6011 103.331 67.6102 103.715 66.3868C103.979 65.5472 104.435 64.8516 105.322 64.7557C105.01 63.6282 105.49 62.8846 105.922 62.3569C106.354 61.8292 107.121 61.5893 107.769 61.7812C107.793 61.2055 108.177 60.6298 108.704 60.3899C109.232 60.1501 109.904 60.246 110.36 60.6298C110.695 59.7663 111.511 59.6224 111.919 59.6224C112.614 59.5984 113.286 60.0301 113.574 60.6778C114.797 59.5744 116.86 60.27 116.932 62.4289C117.22 62.189 117.628 62.117 117.988 62.2849C118.323 62.4529 118.539 62.8127 118.515 63.1965C118.491 63.4363 118.395 63.6762 118.443 63.9161C118.491 64.132 118.659 64.2999 118.875 64.3479C119.091 64.3958 119.307 64.2999 119.451 64.132C119.571 64.5158 119.499 64.9476 119.259 65.2594C119.019 65.5712 118.611 65.7391 118.203 65.6912C118.299 66.027 118.203 66.4108 117.94 66.6267C117.748 66.7946 117.436 66.8665 117.196 66.8426C117.172 66.8426 107.913 75.6459 107.865 75.6939Z" fill="#263238"/>
<path id="Vector_101" d="M117.652 72.7674C117.484 74.3986 116.836 75.2142 115.805 75.7179C115.085 76.0537 114.054 76.1737 114.054 76.1737L114.198 77.9247C117.748 81.4029 110.048 81.8827 108.225 78.7163L107.601 73.4391C107.601 73.4391 107.001 74.3026 105.754 73.703C104.914 73.2952 104.171 72.0238 104.603 70.7285C105.01 69.4572 106.162 69.3852 106.785 69.889C107.481 70.4407 107.481 71.0404 107.793 70.9684C108.273 70.8724 108.441 70.6326 108.513 70.3207C108.656 69.793 108.632 69.2413 108.513 68.0899C108.92 67.802 109.376 67.3463 109.52 66.9865C109.904 66.051 109.52 65.1634 109.184 64.5877C110.432 63.9641 111.919 65.1874 113.31 65.2114C114.917 65.2354 114.917 63.8921 115.781 63.9161C116.548 64.4678 117.028 65.8831 117.076 66.8186C117.196 68.6176 117.988 69.5291 117.652 72.7674Z" fill="#F7A7A8"/>
<path id="Vector_102" d="M114.03 76.1497C112.159 76.2456 110.144 75.8858 109.376 75.2621C108.608 74.6385 108.153 73.2472 108.153 73.2472C108.153 73.2472 108.489 75.0463 109.088 75.7899C109.712 76.5335 111.055 76.7014 111.895 76.8213C112.71 76.9173 114.078 76.9173 114.078 76.9173L114.03 76.1497Z" fill="#F3908F"/>
</g>
</g>
</g>
<g id="Group_32">
<path id="XMLID_00000052822832761399867200000015242936131071041190_" d="M116.356 67.3463L115.085 66.9385C115.181 66.5787 115.541 66.3628 115.901 66.4827C116.236 66.6027 116.452 66.9625 116.356 67.3463Z" fill="#263238"/>
<path id="XMLID_00000011731376711300557870000001367417429079575440_" d="M110.455 68.1139L111.535 67.2743C111.319 66.9625 110.887 66.9145 110.599 67.1304C110.312 67.3703 110.24 67.802 110.455 68.1139Z" fill="#263238"/>
<path id="XMLID_00000145775724716074296070000002089048649572729512_" d="M115.181 68.5457C115.205 68.8575 115.493 69.0734 115.781 69.0734C116.093 69.0494 116.308 68.7855 116.284 68.4737C116.26 68.1619 115.973 67.946 115.685 67.946C115.397 67.97 115.157 68.2338 115.181 68.5457Z" fill="#263238"/>
<path id="XMLID_00000118362172248950039830000009542816045825894072_" d="M111.007 69.0734C111.031 69.3852 111.319 69.6011 111.607 69.6011C111.919 69.5771 112.135 69.3133 112.111 69.0014C112.087 68.6896 111.799 68.4737 111.511 68.4737C111.199 68.4977 110.959 68.7616 111.007 69.0734Z" fill="#263238"/>
<path id="Vector_103" d="M115.685 70.7765L113.91 71.5681L113.214 68.0659C113.862 67.898 114.989 69.6011 115.685 70.7765Z" fill="#F3908F"/>
<path id="Vector_104" d="M113.694 72.6955C113.55 72.4076 113.214 72.2637 112.902 72.1917C112.734 72.1438 112.566 72.1438 112.398 72.1438C112.231 72.1438 112.039 72.1678 111.895 72.2637C111.823 72.3117 111.895 72.4316 111.967 72.4316C112.279 72.4076 112.566 72.3597 112.878 72.4076C113.022 72.4316 113.19 72.4796 113.334 72.5516C113.454 72.5995 113.55 72.6715 113.67 72.7435C113.694 72.7914 113.694 72.7195 113.694 72.6955Z" fill="#B16669"/>
</g>
</g>
</g>
<g id="Group_33">
<g id="Group_34">
<path id="Vector_105" d="M137.753 68.3538C137.753 54.6809 126.671 43.5748 112.974 43.5748C99.3014 43.5748 88.2192 54.657 88.2192 68.3538C88.2192 68.9535 88.2192 71.3762 88.2192 71.9759C88.2192 85.6487 99.3014 96.7549 112.974 96.7549C126.647 96.7549 137.753 85.6487 137.753 71.9759C137.753 71.3762 137.753 68.9535 137.753 68.3538ZM112.974 83.5858C105.178 83.5858 98.7497 77.7089 97.8621 70.1768C98.7497 62.6208 105.178 56.7439 112.974 56.7439C120.77 56.7439 127.199 62.5968 128.11 70.1768C127.199 77.7089 120.77 83.5858 112.974 83.5858Z" fill="#AB6CAD"/>
<path id="Vector_106" d="M137.753 68.3538C137.753 54.6809 126.671 43.5748 112.974 43.5748C99.3014 43.5748 88.2192 54.657 88.2192 68.3538C88.2192 68.9535 88.2192 71.3762 88.2192 71.9759C88.2192 85.6487 99.3014 96.7549 112.974 96.7549C126.647 96.7549 137.753 85.6487 137.753 71.9759C137.753 71.3762 137.753 68.9535 137.753 68.3538ZM112.974 83.5858C105.178 83.5858 98.7497 77.7089 97.8621 70.1768C98.7497 62.6208 105.178 56.7439 112.974 56.7439C120.77 56.7439 127.199 62.5968 128.11 70.1768C127.199 77.7089 120.77 83.5858 112.974 83.5858Z" fill="#F69799"/>
</g>
<g id="Group_35">
<path id="Vector_107" d="M112.974 47.1969C99.3014 47.1969 88.2192 58.2791 88.2192 71.9759C88.2192 85.6487 99.3014 96.7549 112.974 96.7549C126.647 96.7549 137.753 85.6487 137.753 71.9759C137.753 58.303 126.647 47.1969 112.974 47.1969ZM112.974 87.2079C104.555 87.2079 97.7422 80.3715 97.7422 71.9759C97.7422 63.5563 104.555 56.7439 112.974 56.7439C121.394 56.7439 128.206 63.5563 128.206 71.9759C128.206 80.3955 121.394 87.2079 112.974 87.2079Z" fill="#CF3A34"/>
</g>
<path id="Vector_108" d="M112.974 83.5858C105.178 83.5858 98.7497 77.7329 97.8621 70.2008C97.7902 70.8005 97.7422 71.3762 97.7422 71.9999C97.7422 80.3955 104.555 87.2319 112.974 87.2319C121.394 87.2319 128.206 80.3955 128.206 71.9999C128.206 71.4002 128.158 70.8005 128.086 70.2008C127.199 77.7329 120.77 83.5858 112.974 83.5858Z" fill="#AB6CAD"/>
<path id="Vector_109" d="M112.974 83.5858C105.178 83.5858 98.7497 77.7329 97.8621 70.2008C97.7902 70.8005 97.7422 71.3762 97.7422 71.9999C97.7422 80.3955 104.555 87.2319 112.974 87.2319C121.394 87.2319 128.206 80.3955 128.206 71.9999C128.206 71.4002 128.158 70.8005 128.086 70.2008C127.199 77.7329 120.77 83.5858 112.974 83.5858Z" fill="#9B1C20"/>
</g>
<g id="Hand_00000086649481406466470710000003030139853746503079_">
<path id="Vector_110" d="M138.809 72.2158C139.168 71.5201 139.12 71.4482 138.833 71.1603C138.545 70.8725 137.921 70.4167 137.106 70.5606C136.554 70.6566 136.002 70.7285 135.738 70.9204C135.474 71.1123 135.81 71.664 136.554 71.736C137.729 71.832 137.777 72.1438 137.777 72.1438C137.777 72.1438 136.698 72.0718 136.266 72.0958C135.834 72.1438 135.091 72.4316 134.635 72.5995C134.155 72.7435 134.155 73.3671 134.995 73.4631C134.995 73.4631 134.395 73.655 134.131 73.727C133.531 73.9189 133.363 74.2787 133.915 74.5905C134.035 74.6625 134.227 74.7344 134.491 74.7104C134.491 74.7104 133.843 74.8064 133.843 75.0223C133.891 75.646 134.323 75.7659 135.714 75.9578C136.89 76.1257 137.321 76.5335 137.273 76.9893L137.225 77.2771C137.225 77.2771 137.681 76.9173 138.089 76.5335C138.377 76.2456 138.641 75.9578 138.401 75.4541C138.401 75.4541 139.12 75.3581 139.096 74.9023C139.072 74.4466 138.785 73.9668 138.785 73.9668C138.785 73.9668 139.168 73.703 139.072 73.1753C138.977 72.6475 138.689 72.4316 138.689 72.4316L138.809 72.2158Z" fill="#F7A7A8"/>
<path id="Vector_111" d="M134.971 73.4631C135.235 73.3911 135.474 73.2952 135.762 73.2712C136.05 73.2472 136.314 73.3431 136.578 73.4151C137.082 73.559 137.585 73.7269 138.089 73.9668C137.561 73.9188 137.034 73.7989 136.53 73.655C136.266 73.583 136.026 73.4871 135.786 73.4871C135.498 73.4391 135.235 73.4631 134.971 73.4631Z" fill="#F3908F"/>
<path id="Vector_112" d="M134.467 74.7104C134.731 74.5905 135.043 74.5425 135.33 74.5665C135.618 74.5905 135.906 74.6385 136.194 74.7104C136.746 74.8544 137.297 75.0463 137.825 75.3101C137.249 75.2382 136.698 75.0942 136.146 74.9503C135.57 74.7824 135.043 74.6385 134.467 74.7104Z" fill="#F3908F"/>
</g>
<g id="Hand_00000168801580378583137740000004482712037302662530_">
<path id="Vector_113" d="M91.7933 86.968C91.0976 86.6082 91.0977 86.5123 91.1456 86.1285C91.2176 85.7207 91.4575 85.0011 92.2011 84.6173C92.7048 84.3774 93.2085 84.0895 93.5204 84.0895C93.8562 84.0895 93.9042 84.7372 93.3525 85.2169C92.4649 85.9845 92.6808 86.1764 92.6808 86.1764C92.6808 86.1764 93.4484 85.5528 93.8082 85.3369C94.168 85.121 94.9596 84.9291 95.4154 84.7852C95.8711 84.6173 96.2549 85.145 95.6313 85.7207C95.6313 85.7207 96.207 85.5288 96.4948 85.4328C97.0945 85.2409 97.4303 85.4328 97.1905 85.9845C97.1185 86.1285 97.0465 86.2964 96.7827 86.4403C96.7827 86.4403 97.3584 86.1285 97.4783 86.3204C97.8141 86.8721 97.5263 87.2079 96.5188 88.1674C95.6553 88.983 95.5593 89.5587 95.8711 89.9185L96.087 90.1344C96.087 90.1344 95.4873 90.1104 94.9356 90.0384C94.5279 89.9904 94.168 89.8945 94.0481 89.3668C94.0481 89.3668 93.4724 89.5347 93.0406 89.1269C92.8008 88.911 92.8727 88.4073 92.8727 88.4073C92.8727 88.4073 92.369 88.3833 92.1531 87.9035C91.9372 87.4238 92.0332 87.1119 92.0332 87.1119L91.7933 86.968Z" fill="#F7A7A8"/>
<path id="Vector_114" d="M95.6313 85.6967C95.3674 85.7926 95.1275 85.8406 94.8877 85.9845C94.6478 86.1524 94.4799 86.3683 94.312 86.5602C93.9761 86.968 93.6643 87.3998 93.4244 87.8795C93.8322 87.5197 94.168 87.1119 94.5039 86.7042C94.6718 86.4883 94.8157 86.2724 95.0076 86.1285C95.1755 86.0085 95.4394 85.8646 95.6313 85.6967Z" fill="#F3908F"/>
<path id="Vector_115" d="M96.7827 86.4163C96.4948 86.4643 96.2309 86.6082 95.9911 86.8001C95.7512 86.992 95.5593 87.2079 95.3674 87.4238C95.0076 87.8795 94.6718 88.3353 94.4079 88.863C94.8157 88.4552 95.1995 88.0234 95.5593 87.5917C95.9191 87.1359 96.2789 86.7041 96.7827 86.4163Z" fill="#F3908F"/>
</g>
</g>
<g id="Speech_Bubble_00000041280794833711163740000005300220468699185825_">
<g id="Speech_Bubble_7_">
<path id="Vector_116" d="M124.056 39.7848L123.96 36.0907C123.96 36.0907 131.349 35.1072 130.557 27.4552C130.077 22.6817 127.487 18.9637 112.446 19.3955C95.8472 19.8752 97.3584 29.806 99.1814 32.6365C101.94 36.8823 108.632 37.362 120.506 36.7144L123.481 40.0247C123.697 40.2165 124.08 40.0726 124.056 39.7848Z" fill="#FAFBFB"/>
<g id="Group_36">
<path id="Vector_117" d="M123.721 40.5523L120.434 36.9063C108.441 37.5779 101.796 37.0262 99.0136 32.7324C97.9821 31.1493 97.5024 27.815 99.1095 24.7686C100.381 22.3459 103.715 19.4194 112.447 19.1796C126.911 18.7718 130.221 22.178 130.773 27.4312C131.493 34.5075 125.328 36.0427 124.176 36.2586L124.296 40.3125C124.296 40.6243 123.936 40.7682 123.721 40.5523ZM120.602 36.4745L123.865 40.0726L123.745 35.8988L123.936 35.8748C124.224 35.8268 131.109 34.8194 130.365 27.4552C129.933 23.2334 128.206 19.1316 112.471 19.5873C105.706 19.7792 101.22 21.6263 99.4933 24.9605C97.9821 27.839 98.4139 31.0054 99.3974 32.5166C102.084 36.6424 108.657 37.1461 120.554 36.4985L120.602 36.4745Z" fill="#CF3A34"/>
<path id="Vector_118" d="M114.701 19.1556C127.271 19.1556 130.269 22.4658 130.773 27.4312C131.493 34.5075 125.328 36.0427 124.176 36.2586L124.296 40.3125C124.296 40.5044 124.152 40.6483 123.984 40.6483C123.912 40.6483 123.817 40.6243 123.745 40.5524L120.434 36.9063C117.772 37.0502 115.373 37.1461 113.238 37.1461C105.706 37.1461 101.196 36.0667 99.0135 32.7325C97.9821 31.1493 97.5023 27.815 99.1095 24.7686C100.381 22.3459 103.715 19.4194 112.447 19.1796C113.238 19.1556 113.982 19.1556 114.701 19.1556ZM113.214 36.7384C115.397 36.7384 117.82 36.6424 120.506 36.4985H120.602L123.865 40.0966L123.745 35.9228L123.936 35.8988C124.224 35.8508 131.109 34.8434 130.365 27.4792C129.957 23.4733 128.374 19.5634 114.725 19.5634C114.006 19.5634 113.238 19.5634 112.447 19.5874C105.682 19.7793 101.196 21.6263 99.4693 24.9605C97.9581 27.839 98.3899 31.0054 99.3734 32.5166C101.436 35.7069 105.826 36.7384 113.214 36.7384ZM114.701 18.9157C113.982 18.9157 113.214 18.9157 112.447 18.9397C103.595 19.1796 100.189 22.178 98.8936 24.6487C97.3344 27.6471 97.6942 31.1013 98.8217 32.8524C100.909 36.0667 105.082 37.362 113.238 37.362C115.205 37.362 117.532 37.2901 120.338 37.1222L123.553 40.6723C123.649 40.7922 123.817 40.8642 123.96 40.8642C124.104 40.8642 124.248 40.7922 124.368 40.6963C124.464 40.6003 124.536 40.4564 124.512 40.2885L124.416 36.4265C126.023 36.0667 131.708 34.3156 131.013 27.3833C130.725 24.4568 129.598 22.5378 127.391 21.1945C124.824 19.6593 120.674 18.9157 114.701 18.9157ZM113.214 36.4985C105.418 36.4985 101.46 35.2991 99.5653 32.3966C98.5578 30.8614 98.2699 27.7911 99.6852 25.0805C101.388 21.8422 105.802 20.0191 112.47 19.8512C113.262 19.8272 114.006 19.8272 114.725 19.8272C128.206 19.8272 129.717 23.6172 130.125 27.5272C130.845 34.6754 124.2 35.6349 123.912 35.6829L123.721 35.7069L123.505 35.7309V35.9468L123.601 39.4729L120.794 36.3546L120.722 36.2586H120.602H120.506C117.604 36.4025 115.229 36.4985 113.214 36.4985Z" fill="#CF3934"/>
</g>
</g>
</g>
<g id="Character_00000076603369263015456010000005331749738977898675_">
<g id="Bottom_00000066504957563341037030000009174882321217476510_">
<g id="Group_37">
<path id="Vector_119" d="M57.8031 133.6L57.1794 128.13L63.3922 127.579C63.3922 127.579 63.1283 131.8 63.1763 133.719C63.2003 134.631 63.8479 136.334 63.8479 136.334C63.8479 136.334 61.2333 137.677 59.89 137.126C58.5467 136.574 57.6352 134.439 57.6832 134.055C57.7072 133.672 57.8031 133.6 57.8031 133.6Z" fill="#FABCA7"/>
<path id="Vector_120" d="M71.0682 142.211C71.1641 142.211 71.2121 143.003 70.7563 143.386C70.2046 143.842 68.4775 144.682 66.3906 144.394C64.3037 144.082 63.2003 143.434 62.3607 142.739C61.5452 142.043 60.3938 141.036 59.4343 140.82C58.5707 140.604 57.3953 139.884 57.1075 139.62C56.8436 139.357 56.8916 138.157 56.8916 138.157L71.0682 142.211Z" fill="#263238"/>
<path id="XMLID_00000173868623211737462280000001832976140715730324_" d="M57.8031 133.6C57.8031 133.6 57.5393 133.6 57.4913 133.863C57.4193 134.199 57.3234 135.135 57.1795 135.662C56.9636 136.406 56.8197 137.941 56.9156 138.541C57.0116 139.141 58.6667 139.908 59.5782 140.268C60.5137 140.628 61.5692 141.371 62.5047 142.163C63.4642 142.979 65.5271 143.842 66.8704 143.866C68.4775 143.89 70.3006 143.41 70.7324 142.667C71.2601 141.755 71.6679 140.724 69.2931 139.596C68.8374 139.381 67.2782 138.421 66.7504 138.085C65.3112 137.15 64.2797 136.31 63.6561 134.679C63.5841 134.487 63.5121 134.271 63.3202 134.175C63.1763 134.103 63.0084 134.103 62.8645 134.127C62.4567 134.175 60.8735 134.367 60.5137 134.535C60.2019 134.679 59.7221 134.847 59.7221 135.255C59.7221 135.399 59.7701 135.543 59.7941 135.662C59.8181 135.734 59.8421 135.854 59.7701 135.902C59.6981 135.95 59.6022 135.902 59.5542 135.83C59.3143 135.615 59.1224 135.327 58.9305 135.063C58.8106 134.919 58.4748 134.487 58.3309 134.367C58.2109 134.271 58.043 134.223 57.9231 134.103C57.7792 133.959 57.8031 133.791 57.8031 133.6Z" fill="#88B3D6"/>
<path id="Vector_121" d="M62.5047 142.187C62.0969 141.851 61.6651 141.515 61.2094 141.204C61.2094 141.204 63.9919 142.931 65.1433 142.187C65.8869 141.707 65.5511 141.108 65.5271 140.916C65.5031 140.724 68.1177 139.428 68.8374 139.357C69.0293 139.476 69.1972 139.572 69.2931 139.596C71.1401 140.364 71.38 141.323 71.0442 142.499C70.6124 143.219 68.9813 143.962 66.8944 143.914C65.5511 143.89 63.4642 143.003 62.5047 142.187Z" fill="#1B5480"/>
<path id="Vector_122" d="M65.3591 140.364C66.8224 140.964 66.1987 141.228 65.7669 141.3C65.3591 141.347 62.8884 139.86 61.3772 138.661C59.8181 137.39 58.5947 135.71 58.019 135.255C57.8031 135.087 57.5632 134.871 57.3713 134.679C57.4193 134.367 57.4433 134.055 57.4913 133.911C57.5392 133.648 57.8031 133.648 57.8031 133.648C57.8031 133.839 57.7791 134.007 57.8991 134.151C58.019 134.271 58.1869 134.319 58.3068 134.415C58.4508 134.535 58.7866 134.967 58.9065 135.111C59.1224 135.375 59.2903 135.662 59.5302 135.878C60.8015 137.486 63.8719 139.74 65.3591 140.364Z" fill="#1B5480"/>
<g id="Group_38">
<g id="Group_39">
<path id="Vector_123" d="M65.671 141.06C65.647 141.06 65.5991 141.06 65.5751 141.036C65.5031 140.988 65.5031 140.892 65.5511 140.82C65.9828 140.316 67.9978 139.165 69.0772 139.285C69.1492 139.285 69.2211 139.357 69.1972 139.452C69.1972 139.524 69.1252 139.596 69.0292 139.572C68.0218 139.452 66.1028 140.604 65.767 140.988C65.767 141.036 65.719 141.06 65.671 141.06Z" fill="white"/>
</g>
<g id="Group_40">
<path id="Vector_124" d="M64.3996 140.244C64.3757 140.244 64.3277 140.244 64.3037 140.22C64.2317 140.172 64.2317 140.076 64.2797 140.004C64.7115 139.5 66.7264 138.349 67.8059 138.469C67.8778 138.469 67.9498 138.541 67.9258 138.637C67.9258 138.709 67.8538 138.781 67.7579 138.757C66.7504 138.637 64.8314 139.788 64.4956 140.172C64.4716 140.244 64.4236 140.244 64.3996 140.244Z" fill="white"/>
</g>
<g id="Group_41">
<path id="Vector_125" d="M63.1044 139.476C63.0804 139.476 63.0324 139.476 63.0084 139.452C62.9364 139.405 62.9365 139.309 62.9844 139.237C63.4162 138.733 65.4311 137.581 66.5106 137.701C66.5825 137.701 66.6545 137.773 66.6305 137.869C66.6305 137.941 66.5586 138.013 66.4626 137.989C65.4551 137.869 63.5361 139.021 63.2003 139.405C63.2003 139.476 63.1523 139.5 63.1044 139.476Z" fill="white"/>
</g>
<g id="Group_42">
<path id="Vector_126" d="M61.9289 138.613C61.905 138.613 61.857 138.613 61.833 138.589C61.761 138.541 61.761 138.445 61.809 138.373C62.2408 137.869 64.2557 136.718 65.3352 136.838C65.4071 136.838 65.4791 136.91 65.4551 137.006C65.4551 137.078 65.3831 137.15 65.2872 137.126C64.2797 137.006 62.3607 138.157 62.0249 138.541C62.0009 138.613 61.9769 138.613 61.9289 138.613Z" fill="white"/>
</g>
<g id="Group_43">
<path id="Vector_127" d="M60.7536 137.749C60.7296 137.749 60.6816 137.749 60.6576 137.725C60.5857 137.677 60.5857 137.581 60.6337 137.533C61.2333 136.838 63.3202 135.854 64.3997 135.998C64.4716 135.998 64.5436 136.07 64.5196 136.166C64.5196 136.238 64.4477 136.31 64.3517 136.286C63.3682 136.166 61.3533 137.102 60.8495 137.725C60.8495 137.725 60.8016 137.749 60.7536 137.749Z" fill="white"/>
</g>
</g>
</g>
<g id="Group_44">
<path id="Vector_128" d="M47.4885 136.166L48.9757 129.618L42.4991 128.61L42.4032 135.087C42.4032 135.087 41.8994 136.838 42.2832 137.438C42.6431 138.037 46.529 138.661 46.8888 138.277C47.2247 137.845 47.4885 136.166 47.4885 136.166Z" fill="#FABCA7"/>
<path id="Vector_129" d="M46.8409 146.505C46.6729 147.968 46.3611 148.928 45.7374 149.719C45.0898 150.511 43.9624 150.655 42.835 150.247C41.7076 149.863 40.2923 148.999 40.0284 147.68C39.7646 146.361 39.8845 145.497 40.1963 144.154L46.8409 146.505Z" fill="#263238"/>
<path id="XMLID_00000149381482290840832750000012991864055887197114_" d="M42.4032 135.087C41.9235 135.063 42.0674 136.214 41.8515 138.205C41.6116 140.34 40.6521 142.043 40.2923 143.746C39.9085 145.713 39.9805 146.625 40.7001 147.92C41.4437 149.239 44.1783 150.751 45.6415 149.191C46.8409 147.92 46.9608 146.361 46.9608 144.346C46.9608 142.259 46.9368 140.796 47.1047 139.237C47.2727 137.749 47.8963 136.382 47.4885 136.166C47.4406 136.382 47.0568 137.893 46.7929 137.869C46.7689 137.677 46.7929 137.486 46.8169 137.294C46.8409 137.126 46.8409 136.934 46.7209 136.79C46.601 136.646 46.1453 136.454 45.9773 136.406C45.5216 136.262 44.706 136.094 44.2502 135.998C44.0104 135.95 43.7945 135.902 43.5546 135.878C43.3627 135.854 43.1468 135.854 42.9549 135.878C42.835 135.902 42.739 135.95 42.6911 136.046C42.6671 136.118 42.6671 136.19 42.6671 136.262C42.6671 136.406 42.6431 136.526 42.5951 136.67C42.5711 136.718 42.5232 136.79 42.4512 136.766C42.4032 136.742 42.3792 136.694 42.3792 136.646C42.3552 136.43 42.3792 135.207 42.4032 135.087Z" fill="#88B3D6"/>
<path id="Vector_130" d="M40.4123 143.195C40.3643 143.482 39.9805 145.353 40.5562 145.761C41.1799 146.217 41.5876 144.754 41.5876 144.754C41.5876 144.754 43.0988 144.538 45.2337 145.641C45.1138 145.929 45.4016 147.009 46.0013 146.865C46.601 146.721 46.9368 144.562 46.9608 144.538C46.9608 146.457 46.8169 147.968 45.6415 149.215C44.1783 150.775 41.4197 149.239 40.7001 147.944C39.9565 146.625 39.8845 145.737 40.2923 143.77C40.3163 143.554 40.3643 143.362 40.4123 143.195Z" fill="#1B5480"/>
<path id="Vector_131" d="M41.7556 144.898C41.7076 145.617 40.916 145.281 40.94 144.25C40.964 143.219 41.4917 140.724 41.7076 139.045C41.8515 136.622 41.9475 135.039 42.4032 135.063C42.4032 135.087 42.4032 135.111 42.4032 135.135C42.4032 135.135 42.3552 136.502 42.3552 136.67C42.2593 138.133 42.2593 141.012 42.0434 142.331C41.8275 143.65 41.8035 144.178 41.7556 144.898Z" fill="#1B5480"/>
<path id="Vector_132" d="M44.9938 145.593C45.1857 144.898 45.3296 144.442 45.5695 143.099C45.7854 141.779 46.577 139.141 46.9848 137.725C47.1047 137.486 47.5125 136.166 47.5125 136.166C47.8483 136.262 47.5125 137.533 47.3686 138.109C47.2246 138.709 47.0327 139.333 46.8408 140.172C46.3611 141.851 46.3131 144.346 46.0013 145.329C45.6655 146.313 44.8019 146.289 44.9938 145.593Z" fill="#1B5480"/>
<g id="Group_45">
<g id="Group_46">
<path id="Vector_133" d="M45.2817 145.713C45.2577 145.713 45.2337 145.689 45.2098 145.689C45.1858 145.689 43.5306 144.706 41.6116 144.922C41.5157 144.922 41.4197 144.874 41.3958 144.778C41.3718 144.682 41.4437 144.61 41.5397 144.61C43.5786 144.37 45.3057 145.401 45.3777 145.425C45.4496 145.473 45.4976 145.569 45.4496 145.641C45.4256 145.689 45.3537 145.713 45.2817 145.713Z" fill="white"/>
</g>
<g id="Group_47">
<path id="Vector_134" d="M45.7615 144.178C45.7375 144.178 45.7135 144.178 45.7135 144.154C45.6895 144.154 43.8185 143.123 41.7076 143.29C41.6116 143.29 41.5157 143.243 41.5157 143.147C41.4917 143.051 41.5637 142.979 41.6596 142.979C43.9144 142.787 45.8334 143.842 45.9054 143.89C46.0013 143.938 46.0253 144.034 45.9774 144.106C45.9054 144.178 45.8334 144.202 45.7615 144.178Z" fill="white"/>
</g>
<g id="Group_48">
<path id="Vector_135" d="M41.8755 141.827C41.8035 141.803 41.7556 141.779 41.7316 141.707C41.7076 141.611 41.7556 141.539 41.8515 141.515C43.9864 141.132 46.0013 142.331 46.0973 142.403C46.1693 142.451 46.2172 142.547 46.1692 142.619C46.1213 142.691 46.0253 142.691 45.9294 142.667C45.9054 142.667 43.9384 141.491 41.9715 141.851C41.9235 141.827 41.8995 141.827 41.8755 141.827Z" fill="white"/>
</g>
<g id="Group_49">
<path id="Vector_136" d="M42.0674 140.436C41.9954 140.412 41.9475 140.388 41.9235 140.316C41.8995 140.22 41.9475 140.148 42.0434 140.124C44.3942 139.668 46.2892 140.94 46.3611 141.012C46.4331 141.06 46.4571 141.156 46.4091 141.228C46.3611 141.3 46.2412 141.3 46.1692 141.252C46.1453 141.228 44.3222 140.028 42.1394 140.436C42.1154 140.436 42.0914 140.436 42.0674 140.436Z" fill="white"/>
</g>
<g id="Group_50">
<path id="Vector_137" d="M42.2833 138.877C42.2113 138.853 42.1633 138.829 42.1394 138.757C42.1154 138.685 42.1633 138.589 42.2593 138.565C44.4661 138.109 46.5291 139.428 46.601 139.476C46.673 139.524 46.697 139.62 46.649 139.692C46.601 139.764 46.4811 139.764 46.4091 139.716C46.3851 139.692 44.3942 138.421 42.3552 138.853C42.3313 138.877 42.3073 138.877 42.2833 138.877Z" fill="white"/>
</g>
</g>
</g>
<g id="Group_51">
<path id="XMLID_00000087396086452404801680000011532044511488397467_" d="M44.8739 85.5767C42.811 90.6141 44.1783 97.3545 43.9624 102.848C43.7225 109.42 43.6026 114.578 43.6026 114.578C43.5306 115.465 43.0269 116.688 42.6191 121.054C42.1873 125.66 42.2113 132.232 42.2113 132.232C42.2113 132.232 46.0973 133.887 48.52 133.024C48.52 133.024 51.1106 123.165 52.382 117.744C53.5813 112.611 54.4449 104.599 54.4449 104.599L55.8601 112.323C55.8601 112.323 55.6922 115.633 55.7642 117.96C55.8601 120.67 57.3234 131.009 57.3234 131.009C57.3234 131.009 60.9455 133.168 63.4402 131.105C63.4402 131.105 64.6635 115.921 64.7355 112.683C64.9034 106.302 65.0713 93.7804 64.3277 85.5527H44.8739V85.5767Z" fill="#2F70B0"/>
<path id="XMLID_00000008846477133159883980000011500543991449435277_" d="M54.4209 104.623L56.0281 94.524C56.0281 94.524 59.5062 93.9483 61.0174 92.4851C61.0174 92.4851 59.89 94.7159 57.1315 95.4595L55.4524 104.815L55.8362 112.323L54.4209 104.623Z" fill="#263238"/>
</g>
<path id="Vector_138" d="M42.1154 132.472C43.1948 133.312 46.3611 134.055 48.52 133.264L48.9518 131.441C47.3206 131.992 43.9624 131.633 42.1393 130.529L42.1154 132.472Z" fill="#1B5480"/>
<path id="Vector_139" d="M57.2994 131.249C58.043 131.992 61.4252 132.616 63.4402 131.441L63.5841 129.618C62.0729 130.457 58.5707 130.313 57.0835 129.45L57.2994 131.249Z" fill="#1B5480"/>
<g id="Group_52">
<path id="Vector_140" d="M43.8424 103.759C43.8424 103.759 43.5066 111.939 43.5306 112.539C43.5546 113.138 48.0162 114.314 48.1122 113.93C48.3041 113.306 48.2561 111.891 48.6399 105.103C44.9698 104.647 43.8424 103.759 43.8424 103.759Z" fill="#1B5480"/>
<path id="Vector_141" d="M47.9683 107.453C47.8244 107.405 47.6805 107.429 47.5365 107.429C47.3686 107.429 47.2007 107.429 47.0568 107.405C46.721 107.381 46.3611 107.333 46.0253 107.237C45.6415 107.141 45.2577 107.045 44.8979 106.902C44.6101 106.782 44.3222 106.638 44.0104 106.518C43.9864 106.518 43.9864 106.566 43.9864 106.566C44.2742 106.782 44.6101 106.926 44.9219 107.045C45.2337 107.165 45.5456 107.261 45.8574 107.333C46.1932 107.405 46.5291 107.477 46.8889 107.525C47.0568 107.549 47.2247 107.549 47.4166 107.573C47.5845 107.573 47.8244 107.621 47.9683 107.525C47.9923 107.525 47.9923 107.477 47.9683 107.453Z" fill="#37474F"/>
<path id="Vector_142" d="M46.0253 106.326C45.9773 106.23 45.9533 106.182 45.8574 106.182C45.7854 106.182 45.6895 106.182 45.6415 106.23C45.5695 106.278 45.5456 106.35 45.5216 106.422C45.4976 106.542 45.5695 106.662 45.6895 106.734C45.7854 106.782 45.9293 106.806 46.0013 106.734C46.0493 106.686 46.0733 106.614 46.0733 106.542C46.0733 106.47 46.0493 106.374 46.0253 106.326ZM45.9533 106.566C45.9054 106.638 45.8094 106.638 45.7375 106.614C45.6175 106.542 45.6415 106.326 45.7854 106.302C45.8334 106.302 45.8814 106.302 45.9054 106.326C45.9533 106.398 46.0013 106.494 45.9533 106.566Z" fill="#37474F"/>
</g>
</g>
<g id="Top_00000061449141949380468320000003694386730798447036_">
<path id="Vector_143" d="M58.8346 64.252C61.0654 64.6597 62.1688 65.2354 63.848 67.922C65.5271 70.6326 68.9573 78.3326 68.9573 78.3326L76.2974 83.9696L71.8598 85.9606C71.9797 86.1525 70.8043 85.6967 67.8779 84.1135C65.2632 82.6983 65.0473 82.6983 63.3202 79.7238C61.809 77.0852 59.5302 73.2472 59.5302 73.2472L58.8346 64.252Z" fill="#FABCA7"/>
<g id="Group_53">
<path id="Vector_144" d="M44.2023 68.066C47.2727 68.066 49.7434 65.5713 49.7434 62.5249V48.6602H48.8318C46.2652 48.6602 44.2023 50.7231 44.2023 53.2897V68.066Z" fill="#37474F"/>
<g id="Group_54">
<path id="Vector_145" d="M46.9368 50.4112C46.8649 50.6511 46.8169 50.867 46.7929 51.1069C46.7689 51.2508 46.7689 51.4187 46.7929 51.5626C46.8888 52.2822 47.6085 52.81 48.3041 52.8339C49.0237 52.8339 49.6954 52.4262 50.1271 51.8505C50.7268 51.0829 51.6144 49.3078 50.463 48.6601C49.6954 48.2524 48.7119 48.3483 48.0163 48.852C47.5125 49.2358 47.1287 49.7875 46.9368 50.4112Z" fill="#AB6CAD"/>
<path id="Vector_146" d="M46.9368 50.4112C46.8649 50.6511 46.8169 50.867 46.7929 51.1069C46.7689 51.2508 46.7689 51.4187 46.7929 51.5626C46.8888 52.2822 47.6085 52.81 48.3041 52.8339C49.0237 52.8339 49.6954 52.4262 50.1271 51.8505C50.7268 51.0829 51.6144 49.3078 50.463 48.6601C49.6954 48.2524 48.7119 48.3483 48.0163 48.852C47.5125 49.2358 47.1287 49.7875 46.9368 50.4112Z" fill="#2F70B0"/>
</g>
</g>
<path id="Vector_147" d="M46.625 80.1316C46.5051 80.7073 45.1378 83.6337 44.3462 86.7761C49.1917 93.0128 63.5121 89.6066 64.5676 86.1044C64.3517 81.9306 64.1598 71.4002 63.2243 69.5052C61.5931 66.0989 58.8346 64.2759 58.8346 64.2759C57.5393 63.9881 56.172 63.9161 55.7882 63.8681C54.9966 63.7961 53.3415 63.5803 51.2066 63.988C50.2231 64.1799 48.6399 64.5637 47.0568 65.2354C45.3777 65.931 44.9939 68.1619 45.5456 71.8079C45.7854 73.4631 47.5125 76.1976 46.625 80.1316Z" fill="#7BA5C6"/>
<g id="_x34__00000111161076695841070160000005875332288916918457_">
<path id="Vector_148" d="M84.3572 68.7616L79.9435 64.9476L83.3017 47.3168L76.7772 41.6798L71.6918 43.4548L69.3171 55.8083L64.3997 51.5386L82.1743 22.8496L75.17 16.8048L70.0847 18.5799L51.0627 49.0679L49.7673 55.9043L66.5585 70.3927L64.5916 80.5874L71.1401 86.2244L76.2255 84.4493L77.161 79.5319L77.4968 79.8198L82.5821 78.0687L84.3572 68.7616Z" fill="#AB6CAD"/>
<path id="Vector_149" d="M84.3572 68.7616L79.9435 64.9476L83.3017 47.3168L76.7772 41.6798L71.6918 43.4548L69.3171 55.8083L64.3997 51.5386L82.1743 22.8496L75.17 16.8048L70.0847 18.5799L51.0627 49.0679L49.7673 55.9043L66.5585 70.3927L64.5916 80.5874L71.1401 86.2244L76.2255 84.4493L77.161 79.5319L77.4968 79.8198L82.5821 78.0687L84.3572 68.7616Z" fill="#9B1C20"/>
<g id="_x34__00000176038080462483497860000003713991766002905272_">
<g id="Group_55">
<path id="Vector_150" d="M74.8582 66.7226L78.2164 49.0919L71.6918 43.4548L68.3096 61.0856L59.3143 53.3136L77.089 24.6247L70.0847 18.5799L51.0627 49.0679L49.7673 55.9043L66.5585 70.3927L64.5916 80.5873L71.1401 86.2244L73.0831 76.0297L77.4968 79.8197L79.2719 70.5366L74.8582 66.7226Z" fill="#CF3A34"/>
</g>
</g>
<path id="Vector_151" d="M70.0847 18.5799L77.089 24.6247L82.1744 22.8496L75.1701 16.8048L70.0847 18.5799Z" fill="#AB6CAD"/>
<path id="Vector_152" d="M70.0847 18.5799L77.089 24.6247L82.1744 22.8496L75.1701 16.8048L70.0847 18.5799Z" fill="#F69799"/>
<path id="Vector_153" d="M71.6918 43.4548L76.7772 41.6797L83.3017 47.3168L78.2164 49.0919L71.6918 43.4548Z" fill="#AB6CAD"/>
<path id="Vector_154" d="M71.6918 43.4548L76.7772 41.6797L83.3017 47.3168L78.2164 49.0919L71.6918 43.4548Z" fill="#F69799"/>
<path id="Vector_155" d="M74.8582 66.7226L79.9435 64.9476L84.3572 68.7616L79.2718 70.5366L74.8582 66.7226Z" fill="#AB6CAD"/>
<path id="Vector_156" d="M74.8582 66.7226L79.9435 64.9476L84.3572 68.7616L79.2718 70.5366L74.8582 66.7226Z" fill="#F69799"/>
<path id="Vector_157" d="M59.3143 53.3137L64.3997 51.5386L69.3171 55.8084L68.3096 61.0856L59.3143 53.3137Z" fill="#AB6CAD"/>
<path id="Vector_158" d="M59.3143 53.3137L64.3997 51.5386L69.3171 55.8084L68.3096 61.0856L59.3143 53.3137Z" fill="#F69799"/>
</g>
<g id="Group_56">
<path id="Vector_159" d="M71.7398 68.8335C71.356 68.7376 72.2435 67.2503 72.0516 66.2669C71.9557 65.7871 71.356 65.3314 71.1401 65.979C70.6844 67.3463 70.1087 67.826 69.7009 68.6416" fill="#FABCA7"/>
<g id="Group_57">
<g id="Group_58">
<path id="Vector_160" d="M69.7009 68.6416C69.3171 69.4572 68.8613 70.0089 67.7579 70.8005C66.5825 71.6401 59.5782 73.1033 59.5782 73.1033C59.5782 73.1033 57.9231 72.1198 55.0926 70.2248C51.5184 67.8261 48.1842 64.9955 47.0568 65.1874C43.5066 66.1949 44.3462 71.3522 45.7135 72.5036C46.625 73.2712 47.6565 73.9668 51.3265 75.9338C55.3085 78.0687 55.8842 78.1407 57.0595 78.6444C59.1225 79.5079 59.5542 79.34 62.1449 78.4285C64.7355 77.517 66.2707 76.7014 69.7009 74.9983C71.452 74.1347 72.0757 73.5111 73.395 72.6235C74.0426 72.1918 74.4024 71.8799 74.7622 71.4482C75.1221 71.0164 75.4099 70.5366 75.5059 70.0089C75.5298 69.913 75.5298 69.817 75.5778 69.7211C75.6258 69.6251 75.6738 69.5532 75.7457 69.4812C75.8657 69.3373 75.9856 69.1933 76.0576 69.0014C76.1295 68.8095 76.1295 68.6176 76.1535 68.4018C76.1775 68.3058 76.1775 68.2099 76.2015 68.1379C76.2255 68.042 76.2735 67.946 76.2974 67.874C76.4174 67.6582 76.5373 67.4183 76.5613 67.1784C76.5853 66.9385 76.4174 66.8186 76.4174 66.8186C76.4174 66.8186 76.6093 66.5547 76.6573 66.4588C76.7292 66.3388 76.8012 66.1949 76.8492 66.051C76.8731 66.003 76.8971 65.9311 76.8492 65.8831C76.8252 65.8591 76.8012 65.8351 76.7772 65.8111C76.2735 65.5473 75.7697 65.8591 75.3859 66.1709C74.3545 66.9625 73.8747 67.6821 72.7473 68.3778C72.1236 68.7616 71.9797 68.8335 71.7158 68.8335" fill="#FABCA7"/>
<path id="Vector_161" d="M76.4174 66.8906C76.2495 67.1544 76.0336 67.4183 75.8417 67.6821C75.6498 67.946 75.4339 68.1859 75.218 68.4497C75.122 68.5697 75.0261 68.7136 74.9062 68.8335C74.7862 68.9535 74.6903 69.0734 74.5703 69.1934C74.3305 69.4092 74.0906 69.6251 73.8267 69.841L74.1625 69.4812C74.2825 69.3613 74.3784 69.2413 74.4984 69.1214C74.6183 69.0015 74.7143 68.8815 74.8342 68.7616C74.9301 68.6416 75.0261 68.4977 75.146 68.3778C75.3619 68.1139 75.5778 67.874 75.7937 67.6342L76.4174 66.8906Z" fill="#F0997A"/>
<path id="Vector_162" d="M76.2015 68.0899C76.1055 68.3298 75.9856 68.5697 75.8416 68.7615C75.6977 68.9774 75.5538 69.1693 75.4099 69.3852C75.266 69.5771 75.098 69.769 74.9301 69.9609C74.7622 70.1528 74.5943 70.3207 74.4024 70.4886C74.5703 70.2967 74.7142 70.0809 74.8582 69.889L75.3139 69.2893L75.7697 68.6896C75.9376 68.5217 76.0815 68.3058 76.2015 68.0899Z" fill="#F0997A"/>
</g>
</g>
</g>
<g id="Group_59">
<g id="Head_00000041259930596052530550000004087576041417594019_">
<path id="Vector_163" d="M60.2019 56.504L60.6576 56.3601C62.6965 55.2567 62.6006 52.5941 62.0969 51.2268C60.9934 48.1324 57.6352 46.981 55.5723 46.8611C51.6383 46.6452 49.7194 47.6527 49.3356 49.6916C48.8078 49.6436 48.0642 50.0754 47.6324 50.6751C46.6729 51.9944 45.5216 56.576 50.6069 61.3975L60.2019 56.504Z" fill="#37474F"/>
<g id="XMLID_00000167354539174059435210000006240205408302933407_">
<g id="XMLID_00000039830162796333418130000007861564266307790234_">
<path id="XMLID_00000095320664042384293510000001918730369386611631_" d="M49.6474 59.8622C48.9278 59.9582 48.4001 59.5984 47.9683 59.1186C47.0568 58.0392 47.0088 56.9597 47.4885 56.2641C47.8723 55.6884 48.7839 55.3526 49.4075 55.7844C50.0552 56.2401 50.0792 56.5759 50.2951 57.0557C50.5349 57.5594 51.5184 57.5354 51.8303 55.6164C52.1181 53.8414 52.0461 51.9704 52.9577 51.1788C54.325 50.0274 55.7162 50.4112 56.196 51.1548C56.7717 50.3392 57.995 50.2912 58.8586 50.795C59.5062 51.1788 60.1779 51.7784 60.1059 53.7694C60.0819 54.3931 60.4897 55.5445 60.5377 56.408C60.7056 59.8862 60.1299 60.7497 59.2184 61.5893C58.6667 62.093 57.7791 62.4289 56.4838 62.4289L56.5318 64.2039C56.5318 64.2039 58.115 66.5067 58.1629 67.6581L50.7029 64.108L50.511 59.3105C50.5349 59.3345 50.343 59.7423 49.6474 59.8622Z" fill="#FABCA7"/>
</g>
<g id="Group_60">
<g id="XMLID_00000103248032830380764680000010514194333853361287_">
<path id="XMLID_00000075151378092642637730000013780401570928952500_" d="M58.4988 52.642L59.5302 53.5535C59.2903 53.8414 58.8586 53.8893 58.5707 53.6255C58.2829 53.3616 58.2589 52.9298 58.4988 52.642Z" fill="#263238"/>
</g>
<g id="XMLID_00000070835550745099874860000014783791833598755740_">
<path id="XMLID_00000095309930185450578240000016366696786800506298_" d="M54.9726 53.7694L53.7013 54.513C53.4854 54.1772 53.5813 53.7214 53.9411 53.5295C54.301 53.3137 54.7567 53.4336 54.9726 53.7694Z" fill="#263238"/>
</g>
<path id="Vector_164" d="M52.9817 51.4187C52.6698 51.8025 52.454 52.2103 52.5019 53.6015C52.5259 54.1772 52.4779 55.5445 52.0941 56.3601C51.7583 57.0797 51.3985 57.4875 50.6549 57.6314C50.2711 57.7034 49.6474 57.6554 49.2876 57.4875C49.0238 57.3676 48.2801 56.8398 48.3521 56.0482C48.472 56.1922 48.6879 56.3601 48.9038 56.432C49.0717 56.504 49.2396 56.552 49.4076 56.552C49.9113 56.576 50.415 56.2641 50.7029 55.8324C51.2066 55.0888 51.1826 54.0573 51.3265 53.1937C51.5184 52.0903 51.7103 50.867 52.6938 50.3153C53.8692 49.6676 55.9801 49.9554 56.22 51.1548C55.4044 50.3872 53.7733 50.4112 52.9817 51.4187Z" fill="#37474F"/>
<g id="XMLID_00000119839732964713902200000015053623680021718959_">
<path id="XMLID_00000170962285552930317330000002902767820037601924_" d="M56.7717 54.633L57.1795 58.0392L59.0265 57.3196L56.7717 54.633Z" fill="#F0997A"/>
</g>
<path id="Vector_165" d="M55.5963 55.7124C55.5963 56.0002 55.3564 56.2401 55.0686 56.2401C54.7807 56.2401 54.5408 56.0002 54.5408 55.7124C54.5408 55.4245 54.7807 55.1847 55.0686 55.1847C55.3564 55.1607 55.5963 55.4006 55.5963 55.7124Z" fill="#263238"/>
<path id="Vector_166" d="M58.8826 55.6884C59.174 55.6884 59.4103 55.4521 59.4103 55.1607C59.4103 54.8692 59.174 54.633 58.8826 54.633C58.5911 54.633 58.3549 54.8692 58.3549 55.1607C58.3549 55.4521 58.5911 55.6884 58.8826 55.6884Z" fill="#263238"/>
<g id="Group_61">
<path id="Vector_167" d="M56.8437 59.1186C56.8437 59.4065 56.6038 59.6463 56.3159 59.6463C56.0281 59.6463 55.7882 59.4065 55.7882 59.1186C55.7882 58.8308 56.0281 58.5909 56.3159 58.5909C56.6038 58.5669 56.8437 58.8068 56.8437 59.1186Z" fill="#B16669"/>
<path id="Vector_168" d="M55.7882 58.9747C55.7882 59.0227 55.7642 59.0707 55.7642 59.1186C55.7642 59.4065 56.0041 59.6463 56.2919 59.6463C56.4359 59.6463 56.5558 59.5984 56.6518 59.5024C56.4599 59.2146 56.148 59.0227 55.7882 58.9747Z" fill="#F3908F"/>
</g>
<g id="XMLID_00000145034618046863658140000002560083963756864173_">
<path id="XMLID_00000010993301906442350400000017116912824110257837_" d="M56.4838 62.4529C54.9726 62.4049 53.6053 62.141 52.7418 61.6133C52.358 61.3735 51.6384 60.7738 51.1586 59.9102C51.1586 59.9102 51.2306 61.3735 52.5739 62.3329C53.9412 63.2924 56.4838 63.4604 56.4838 63.4604V62.4529Z" fill="#F0997A"/>
</g>
</g>
</g>
</g>
</g>
<g id="Group_62">
<path id="Vector_169" d="M77.113 85.049C77.9046 85.049 77.9286 84.9531 78.0485 84.5693C78.1684 84.1855 78.2644 83.4179 77.7606 82.7462C77.4248 82.3144 77.089 81.8347 76.8011 81.6908C76.5133 81.5468 76.1535 82.0986 76.4653 82.7942C76.9211 83.8736 76.6812 84.0655 76.6812 84.0655C76.6812 84.0655 76.2494 83.0581 76.0096 82.7222C75.7697 82.3624 75.17 81.8587 74.8102 81.4989C74.4744 81.163 73.8987 81.4509 74.2105 82.2425C74.2105 82.2425 73.7787 81.8107 73.5628 81.6188C73.1071 81.163 72.7233 81.187 72.6993 81.8107C72.6993 81.9546 72.6993 82.1465 72.8672 82.3864C72.8672 82.3864 72.4834 81.8587 72.2915 81.9786C71.7638 82.3144 71.8597 82.7462 72.3395 84.0655C72.7473 85.1929 72.5794 85.7446 72.1476 85.9126L71.8597 86.0085C71.8597 86.0085 72.4115 86.2484 72.9392 86.4403C73.323 86.5842 73.7068 86.6562 74.0426 86.2244C74.0426 86.2244 74.4504 86.8241 74.8582 86.5842C75.242 86.3443 75.5298 85.8646 75.5298 85.8646C75.5298 85.8646 75.9616 86.0805 76.3694 85.7446C76.7772 85.4088 76.8491 85.073 76.8491 85.073L77.113 85.049Z" fill="#FABCA7"/>
<path id="Vector_170" d="M74.2345 82.2425C74.4264 82.4344 74.6183 82.6023 74.7862 82.8422C74.9301 83.106 74.9781 83.3699 75.0501 83.6098C75.146 84.1375 75.242 84.6652 75.266 85.1929C75.0741 84.6892 74.9301 84.1855 74.8102 83.6577C74.7622 83.3939 74.7142 83.13 74.6183 82.9141C74.4984 82.6983 74.3544 82.4824 74.2345 82.2425Z" fill="#F0997A"/>
<path id="Vector_171" d="M72.8912 82.3864C73.1311 82.5543 73.299 82.8182 73.419 83.082C73.5389 83.3459 73.6348 83.6338 73.7068 83.8976C73.8267 84.4493 73.9227 85.025 73.9467 85.6007C73.7548 85.049 73.6109 84.4973 73.4909 83.9456C73.323 83.3939 73.2271 82.8662 72.8912 82.3864Z" fill="#F0997A"/>
</g>
</g>
</g>
<g id="Group_63">
<g id="Group_64">
<path id="Vector_172" d="M104.842 30.9334C104.507 30.7415 104.267 30.5016 104.075 30.1658C103.883 29.83 103.811 29.4462 103.811 29.0144V27.3353C103.811 26.9035 103.907 26.5197 104.075 26.1839C104.267 25.8481 104.507 25.5842 104.842 25.4163C105.178 25.2244 105.562 25.1524 105.994 25.1524C106.426 25.1524 106.809 25.2484 107.145 25.4163C107.481 25.6082 107.721 25.8481 107.913 26.1839C108.105 26.5197 108.177 26.9035 108.177 27.3353V29.0144C108.177 29.4462 108.081 29.83 107.913 30.1658C107.721 30.5016 107.481 30.7655 107.145 30.9334C106.809 31.1013 106.426 31.1973 105.994 31.1973C105.562 31.2213 105.178 31.1253 104.842 30.9334ZM106.522 29.9499C106.665 29.854 106.785 29.734 106.881 29.5901C106.953 29.4222 107.001 29.2543 107.001 29.0384V27.2873C107.001 27.0714 106.953 26.9035 106.881 26.7356C106.809 26.5677 106.689 26.4478 106.522 26.3758C106.378 26.2798 106.186 26.2559 105.994 26.2559C105.802 26.2559 105.61 26.3038 105.466 26.3758C105.322 26.4717 105.202 26.5917 105.106 26.7356C105.034 26.9035 104.986 27.0714 104.986 27.2873V29.0384C104.986 29.2543 105.034 29.4222 105.106 29.5901C105.178 29.758 105.298 29.878 105.466 29.9499C105.61 30.0459 105.802 30.0699 105.994 30.0699C106.186 30.0938 106.378 30.0459 106.522 29.9499Z" fill="#2B2B2B"/>
<path id="Vector_173" d="M110.264 30.9334C109.928 30.7415 109.688 30.5016 109.496 30.1658C109.304 29.83 109.232 29.4462 109.232 29.0144V27.3353C109.232 26.9035 109.328 26.5197 109.496 26.1839C109.688 25.8481 109.928 25.5842 110.264 25.4163C110.599 25.2244 110.983 25.1524 111.415 25.1524C111.847 25.1524 112.231 25.2484 112.566 25.4163C112.902 25.6082 113.142 25.8481 113.334 26.1839C113.526 26.5197 113.598 26.9035 113.598 27.3353V29.0144C113.598 29.4462 113.502 29.83 113.334 30.1658C113.142 30.5016 112.902 30.7655 112.566 30.9334C112.231 31.1013 111.847 31.1973 111.415 31.1973C110.983 31.2213 110.599 31.1253 110.264 30.9334ZM111.943 29.9499C112.087 29.854 112.207 29.734 112.303 29.5901C112.375 29.4222 112.423 29.2543 112.423 29.0384V27.2873C112.423 27.0714 112.375 26.9035 112.303 26.7356C112.231 26.5677 112.111 26.4478 111.943 26.3758C111.799 26.2798 111.607 26.2559 111.415 26.2559C111.223 26.2559 111.031 26.3038 110.887 26.3758C110.743 26.4717 110.623 26.5917 110.527 26.7356C110.456 26.9035 110.408 27.0714 110.408 27.2873V29.0384C110.408 29.2543 110.456 29.4222 110.527 29.5901C110.599 29.758 110.719 29.878 110.887 29.9499C111.031 30.0459 111.223 30.0699 111.415 30.0699C111.607 30.0938 111.775 30.0459 111.943 29.9499Z" fill="#2B2B2B"/>
<path id="Vector_174" d="M114.773 25.2004H115.901V31.1493H114.773V25.2004ZM115.277 27.7431H117.172C117.316 27.7431 117.436 27.7191 117.532 27.6471C117.628 27.5752 117.724 27.5032 117.772 27.3833C117.82 27.2633 117.868 27.1434 117.868 26.9995C117.868 26.8555 117.844 26.7116 117.772 26.6157C117.7 26.5197 117.628 26.4238 117.532 26.3518C117.436 26.2798 117.316 26.2559 117.172 26.2559H115.277V25.1764H117.148C117.508 25.1764 117.844 25.2484 118.131 25.3923C118.419 25.5362 118.635 25.7521 118.779 26.04C118.947 26.3278 119.019 26.6397 119.019 26.9995C119.019 27.3593 118.947 27.6711 118.779 27.959C118.635 28.2228 118.395 28.4387 118.131 28.6066C117.844 28.7505 117.532 28.8225 117.148 28.8225H115.277V27.7431Z" fill="#2B2B2B"/>
<path id="Vector_175" d="M121.034 31.1253C120.77 31.0773 120.506 30.9814 120.266 30.8614C120.026 30.7415 119.811 30.6216 119.619 30.4537L120.146 29.5181C120.386 29.71 120.65 29.854 120.938 29.9499C121.25 30.0459 121.538 30.0938 121.873 30.0938C122.233 30.0938 122.521 30.0219 122.737 29.9019C122.929 29.782 123.049 29.6141 123.049 29.3742C123.049 29.2063 123.001 29.0864 122.905 28.9904C122.809 28.8945 122.689 28.8225 122.545 28.7745C122.401 28.7266 122.209 28.7026 121.993 28.6546H121.969H121.945L121.849 28.6306C121.442 28.5586 121.13 28.4867 120.866 28.3907C120.602 28.2948 120.386 28.1269 120.194 27.887C120.002 27.6471 119.93 27.3113 119.93 26.8795C119.93 26.4957 120.026 26.1599 120.194 25.896C120.362 25.6322 120.626 25.4163 120.938 25.2724C121.274 25.1284 121.658 25.0565 122.137 25.0565C122.353 25.0565 122.569 25.0805 122.785 25.1284C123.001 25.1764 123.217 25.2484 123.433 25.3443C123.649 25.4403 123.84 25.5602 124.032 25.6802L123.553 26.6397C123.313 26.4717 123.073 26.3518 122.833 26.2798C122.593 26.1839 122.353 26.1599 122.113 26.1599C121.778 26.1599 121.514 26.2079 121.322 26.3278C121.13 26.4478 121.034 26.5917 121.034 26.8076C121.034 26.9755 121.082 27.1194 121.178 27.2154C121.274 27.3113 121.394 27.3833 121.538 27.4312C121.682 27.4792 121.897 27.5272 122.137 27.5752H122.161H122.185C122.209 27.5752 122.209 27.5752 122.233 27.5752C122.257 27.5752 122.257 27.5752 122.281 27.5752C122.665 27.6471 122.977 27.7431 123.217 27.839C123.481 27.935 123.673 28.1029 123.84 28.3428C124.008 28.5826 124.104 28.8945 124.104 29.3023C124.104 29.6861 124.008 29.9979 123.84 30.2857C123.673 30.5496 123.409 30.7655 123.073 30.9094C122.737 31.0533 122.329 31.1253 121.849 31.1253C121.586 31.2213 121.298 31.1733 121.034 31.1253Z" fill="#2B2B2B"/>
<path id="Vector_176" d="M125.088 25.2004H126.215V29.3743H125.088V25.2004ZM125.088 30.0219H126.215V31.1493H125.088V30.0219Z" fill="#2B2B2B"/>
</g>
</g>
</g>
</svg>
